<?xml version="1.0" standalone="no"?>
<!DOCTYPE svg PUBLIC "-//W3C//DTD SVG 20010904//EN"
 "http://www.w3.org/TR/2001/REC-SVG-20010904/DTD/svg10.dtd">
<svg version="1.0" xmlns="http://www.w3.org/2000/svg"
 width="683.000000pt" height="683.000000pt" viewBox="0 0 683.000000 683.000000"
 preserveAspectRatio="xMidYMid meet">
<metadata>
Created by potrace 1.14, written by Peter Selinger 2001-2017
</metadata>
<g transform="translate(0.000000,683.000000) scale(0.100000,-0.100000)"
fill="#000000" stroke="none">
<path d="M0 6579 l0 -252 73 8 c39 4 97 9 127 11 30 1 84 7 119 13 35 6 68 8
72 5 8 -5 172 14 199 23 28 10 159 17 255 14 39 -2 142 3 230 9 88 6 180 8
205 5 55 -8 129 -41 137 -60 3 -8 9 -12 14 -9 5 3 9 -4 9 -15 0 -10 3 -27 6
-35 6 -15 7 -15 19 0 11 15 13 14 23 -14 14 -41 22 -41 18 1 -2 17 -1 22 1 10
3 -18 11 -23 34 -23 31 0 36 6 42 55 5 43 15 62 53 102 19 20 34 41 34 48 0 7
7 16 16 19 24 9 53 86 50 136 -1 28 3 52 12 63 13 15 13 17 -1 17 -10 0 -17 7
-17 15 0 8 -10 35 -22 60 l-22 45 -843 0 -843 0 0 -251z"/>
<path d="M2046 6758 c-3 -40 -7 -203 -8 -361 -1 -160 -6 -291 -11 -294 -5 -3
-3 -9 4 -14 11 -6 11 -11 1 -21 -6 -6 -12 -23 -12 -36 0 -13 -4 -20 -10 -17
-5 3 -10 1 -10 -6 0 -15 -59 -69 -76 -69 -6 0 -17 -15 -24 -32 -25 -66 -56
-119 -92 -159 -20 -22 -37 -42 -37 -45 0 -3 -23 -37 -52 -77 -28 -40 -48 -62
-45 -50 4 12 2 24 -4 28 -5 3 -10 31 -10 62 0 47 -3 56 -20 60 l-21 6 21 14
c32 23 24 93 -11 93 -10 0 -19 7 -19 15 0 8 9 15 20 15 17 0 20 6 17 37 -1 22
-11 47 -25 62 -12 13 -20 31 -17 40 3 10 -3 20 -18 26 -18 8 -23 19 -25 58 -3
52 -20 61 -45 25 l-16 -23 -7 33 c-3 17 -11 32 -15 32 -14 0 -29 -47 -29 -91
0 -24 -5 -39 -12 -39 -9 0 -9 -3 0 -12 20 -20 14 -28 -23 -28 -19 0 -35 -5
-35 -11 0 -7 -9 -9 -21 -6 -11 3 -37 0 -57 -7 -20 -7 -58 -12 -84 -11 -27 1
-48 -2 -48 -8 0 -6 -13 -7 -32 -2 -18 4 -42 8 -53 8 -11 0 -23 6 -27 11 -6 8
-11 7 -17 -3 -6 -9 -10 -10 -12 -2 -6 17 -69 -31 -69 -52 0 -10 -4 -15 -10
-12 -5 3 -24 0 -42 -8 -75 -33 -91 -37 -128 -37 -21 0 -45 -7 -54 -15 -8 -8
-22 -15 -31 -15 -9 0 -23 7 -31 15 -9 8 -31 15 -49 15 -24 0 -39 7 -49 22 -9
12 -16 17 -16 11 0 -8 -10 -7 -30 4 -17 8 -41 16 -53 18 -41 5 -122 27 -157
43 -37 16 -50 19 -115 25 -21 3 -41 10 -43 16 -3 9 -7 9 -18 0 -8 -6 -21 -8
-31 -4 -10 5 -37 10 -60 12 l-43 3 0 -3000 0 -3000 788 1 c433 0 780 3 772 6
-27 11 -48 38 -55 71 -3 17 -10 32 -15 32 -8 0 -8 11 -1 64 0 5 4 7 7 3 8 -8
34 18 34 35 0 7 -7 33 -15 57 -9 24 -13 52 -10 63 4 10 2 25 -4 31 -14 18 -33
96 -32 132 0 17 -4 42 -10 56 -17 43 5 206 36 262 37 65 45 70 112 63 120 -13
183 -9 183 11 0 7 5 13 10 13 6 0 10 12 10 26 0 14 4 23 9 19 13 -7 30 50 32
107 2 35 -6 64 -31 114 -22 46 -33 82 -34 117 -1 47 -2 50 -36 61 -47 15 -49
38 -6 61 50 27 97 12 109 -35 5 -18 17 -45 28 -58 10 -14 19 -33 19 -43 0 -9
6 -24 14 -31 7 -8 17 -25 20 -38 20 -68 36 -88 84 -106 26 -10 54 -23 63 -31
8 -7 21 -13 27 -13 15 0 48 -49 56 -83 4 -16 12 -27 19 -24 16 5 16 53 -1 102
-17 50 -8 129 14 121 12 -5 14 2 10 39 -7 59 -20 81 -56 100 -33 17 -64 20
-55 5 13 -21 -15 -9 -33 15 -11 14 -27 25 -36 25 -14 0 -21 19 -17 44 1 5 -5
6 -14 3 -9 -4 -15 -1 -15 7 0 7 -7 19 -15 26 -8 7 -15 20 -15 30 0 10 -7 23
-15 30 -7 6 -17 31 -21 55 -3 25 -13 46 -21 49 -11 5 -12 10 -4 19 8 10 6 19
-4 35 -16 22 -16 42 0 54 6 5 5 8 -4 8 -11 0 -11 3 -1 15 6 8 9 18 7 22 -3 5
3 9 14 9 13 0 19 -7 19 -24 0 -20 3 -22 14 -13 11 9 15 8 20 -5 4 -10 13 -14
26 -11 10 3 21 0 24 -7 3 -8 7 -7 14 3 8 11 13 8 25 -16 11 -21 29 -33 59 -43
46 -14 107 -66 170 -144 36 -45 232 -206 251 -206 4 0 -7 21 -25 48 -18 26
-33 52 -34 57 -1 6 -18 39 -39 75 -49 87 -59 111 -80 205 -9 44 -28 101 -41
127 -13 26 -24 55 -24 65 0 10 -8 39 -17 65 -17 47 -17 47 8 69 46 41 126 71
208 76 l77 6 51 -50 c68 -66 126 -182 157 -315 30 -126 60 -210 85 -232 17
-16 19 -13 41 66 40 144 58 164 163 190 40 9 78 17 85 18 17 0 15 -32 -8 -188
-24 -159 -27 -366 -6 -445 8 -29 12 -66 9 -83 -8 -46 -76 -186 -110 -224 -16
-19 -43 -55 -60 -80 -17 -25 -41 -56 -55 -70 -13 -14 -32 -38 -42 -53 -10 -17
-23 -26 -32 -23 -7 3 -13 2 -13 -2 4 -22 -3 -33 -16 -28 -8 3 -15 1 -15 -4 0
-6 -7 -10 -15 -10 -9 0 -38 -22 -66 -49 -44 -43 -50 -54 -51 -92 -1 -24 -5
-48 -9 -54 -3 -5 -10 -25 -14 -43 -3 -17 -10 -32 -14 -32 -5 0 -6 -11 -4 -24
3 -12 -2 -43 -10 -67 -14 -43 -14 -45 9 -68 23 -22 43 -59 58 -103 5 -17 113
-18 2081 -18 l2075 0 0 3415 0 3415 -1597 0 c-1146 0 -1594 -3 -1583 -11 12
-9 11 -9 -5 -3 -11 4 -53 9 -92 11 -59 2 -73 0 -73 -12 0 -9 6 -12 15 -9 8 4
15 1 15 -5 0 -19 -38 -12 -45 8 -5 17 -14 19 -60 18 -54 -2 -54 -2 -32 -19 12
-10 16 -18 10 -18 -7 0 -13 -5 -13 -12 0 -9 3 -9 12 0 15 15 38 16 38 2 0 -5
-8 -10 -17 -10 -15 0 -16 -2 -3 -10 24 -15 2 -12 -30 5 -26 13 -30 13 -38 0
-4 -9 -23 -17 -42 -20 -18 -2 -37 -10 -41 -16 -4 -8 -30 -13 -62 -13 -30 -1
-50 -4 -44 -8 6 -4 8 -10 4 -15 -4 -4 -17 -1 -28 6 -12 7 -24 10 -27 7 -3 -3
0 -6 6 -6 6 0 10 -9 9 -20 -2 -25 -18 -29 -179 -37 -54 -2 -98 -8 -98 -12 0
-4 -39 -9 -86 -10 -71 -1 -85 1 -76 12 6 7 8 18 4 24 -4 6 -7 48 -7 92 l0 81
-306 0 -307 0 -6 -72z m1371 56 c-3 -3 -12 -4 -19 -1 -8 3 -5 6 6 6 11 1 17
-2 13 -5z m33 2 c0 -3 -4 -8 -10 -11 -5 -3 -10 -1 -10 4 0 6 5 11 10 11 6 0
10 -2 10 -4z m7 -52 c-3 -3 -12 -4 -19 -1 -8 3 -5 6 6 6 11 1 17 -2 13 -5z
m-590 -150 c-3 -3 -12 -4 -19 -1 -8 3 -5 6 6 6 11 1 17 -2 13 -5z m-58 -23
c10 -6 -4 -13 -45 -22 -74 -17 -79 -17 -79 1 0 11 15 17 50 21 27 3 52 6 55 7
3 1 11 -2 19 -7z m1631 -1282 c0 -5 -4 -9 -10 -9 -5 0 -10 7 -10 16 0 8 5 12
10 9 6 -3 10 -10 10 -16z m278 -20 c-3 -8 -7 -3 -11 10 -4 17 -3 21 5 13 5 -5
8 -16 6 -23z m-307 -29 c13 0 8 -42 -6 -52 -14 -11 -25 -10 -25 3 0 5 5 7 10
4 6 -3 10 -2 10 4 0 5 -5 11 -12 13 -7 3 -9 14 -3 34 6 21 9 24 12 12 3 -10 9
-18 14 -18z m-1331 -17 c0 -7 11 -13 24 -13 35 0 40 -16 14 -36 -14 -10 -16
-14 -6 -11 10 4 18 0 20 -8 2 -11 10 -10 41 5 20 10 37 16 37 13 0 -3 11 2 25
11 32 21 31 14 -1 -41 -14 -25 -23 -47 -20 -50 3 -4 6 -1 6 6 0 8 6 11 16 7
11 -4 15 -2 11 7 -3 8 -1 20 5 28 7 10 8 1 4 -28 -4 -24 -2 -43 3 -43 10 0 9
-18 0 -35 -4 -5 -9 -22 -13 -37 -5 -23 -3 -27 11 -22 12 4 8 -3 -9 -18 -16
-14 -28 -32 -28 -39 1 -10 5 -8 15 5 21 27 31 12 11 -16 -9 -12 -15 -32 -15
-43 1 -15 2 -16 6 -4 2 10 13 19 23 22 18 5 19 3 5 -16 -17 -24 -20 -51 -5
-42 6 3 10 2 10 -4 0 -5 -8 -14 -17 -20 -15 -8 -16 -12 -5 -22 10 -11 12 -10
12 0 0 21 48 62 54 46 2 -7 -1 -18 -7 -24 -11 -11 2 -16 28 -11 6 1 4 -4 -2
-11 -7 -7 -13 -28 -13 -47 0 -19 -4 -31 -10 -27 -5 3 -10 -1 -10 -9 0 -9 7
-16 15 -16 11 0 15 11 15 39 0 26 5 41 15 45 9 3 22 20 30 38 l14 33 1 -37 c0
-28 -5 -38 -20 -43 -11 -3 -20 -11 -20 -16 0 -6 4 -8 9 -5 5 3 11 -8 13 -24 3
-17 1 -30 -4 -30 -4 0 -6 -16 -3 -35 2 -19 0 -35 -4 -35 -5 0 -6 -11 -3 -25 4
-23 13 -30 35 -26 4 1 16 -18 27 -41 27 -62 42 -81 34 -43 -4 17 -10 35 -15
40 -12 16 -15 60 -4 60 5 0 10 -4 11 -10 2 -5 7 -28 13 -50 10 -39 11 -39 7
-5 -2 19 -5 40 -6 45 -1 6 -2 30 -1 54 1 34 4 42 16 37 8 -3 14 -2 14 2 -3 21
3 28 24 27 17 -1 23 -8 24 -31 3 -28 2 -28 -9 -6 -6 12 -16 22 -21 22 -6 0 -7
-3 -4 -6 3 -4 2 -14 -3 -23 -5 -10 -5 -23 1 -32 6 -10 9 -6 9 15 0 42 11 25
16 -25 5 -53 14 -64 14 -18 0 19 9 66 19 104 l19 70 1 -52 c1 -29 6 -53 11
-53 6 0 10 -24 10 -52 -1 -49 -2 -51 -15 -34 -8 11 -15 17 -15 14 0 -4 -3 -15
-6 -25 -5 -15 -4 -15 5 -3 9 12 11 9 12 -15 1 -16 1 -33 0 -37 0 -5 7 -8 16
-8 12 0 14 3 6 11 -8 8 -7 18 3 37 8 15 14 44 14 65 0 20 4 37 10 37 5 0 9 3
9 8 -5 29 3 92 11 92 6 0 8 -17 5 -42 l-5 -43 15 35 c11 25 14 28 11 10 -3
-14 -1 -32 4 -40 5 -8 10 -10 11 -5 5 61 12 92 24 105 10 10 15 11 15 2 0 -7
4 -12 9 -12 16 0 9 49 -8 53 -10 3 -8 5 7 6 13 1 22 7 22 16 0 9 7 18 15 21 8
4 15 14 16 23 0 10 2 12 6 3 3 -7 -1 -19 -7 -27 -14 -16 -20 -174 -8 -181 4
-3 5 2 2 10 -6 15 23 86 39 97 5 4 6 12 2 19 -6 9 -4 11 4 5 8 -4 11 -18 7
-36 -3 -16 -1 -29 4 -29 6 0 10 7 10 17 0 9 3 14 6 11 3 -3 1 -29 -4 -57 -5
-28 -6 -51 -2 -51 9 0 23 67 25 125 1 22 9 56 18 75 13 27 16 29 13 10 -5 -24
-4 -24 9 -6 14 19 15 18 16 -10 0 -25 2 -26 9 -9 5 13 7 -3 4 -42 -2 -38 0
-63 6 -63 6 0 10 9 10 19 0 11 5 23 10 26 6 3 10 17 10 29 0 24 28 99 31 81 0
-5 2 -61 2 -124 2 -129 15 -152 40 -69 11 39 16 46 16 26 1 -16 6 -28 11 -28
6 0 11 -19 12 -42 1 -41 2 -41 8 12 4 30 7 47 8 38 3 -28 20 -21 18 7 0 16 -6
23 -13 20 -7 -2 -13 0 -13 5 0 6 4 10 8 10 4 0 5 25 2 56 -3 30 -3 57 2 60 4
3 8 -11 8 -30 0 -35 13 -48 23 -23 3 6 6 1 6 -12 1 -16 -3 -22 -14 -17 -11 4
-13 1 -6 -12 5 -9 14 -33 19 -52 l10 -35 2 45 c2 42 3 43 10 15 7 -26 8 -24 7
17 0 26 2 50 6 54 4 4 7 21 8 38 0 17 5 40 10 51 8 18 8 18 7 -5 -1 -14 0 -29
3 -35 11 -19 19 -65 12 -65 -5 0 -9 -37 -10 -82 -1 -64 2 -84 14 -93 9 -7 18
-35 22 -70 3 -33 11 -60 19 -63 13 -4 17 28 12 107 -2 36 1 43 13 38 9 -3 18
-1 21 6 4 7 4 2 2 -10 -2 -12 2 -27 10 -34 16 -13 21 -144 5 -135 -5 3 -12 -6
-15 -20 -6 -21 -12 -25 -31 -22 -13 3 -26 0 -29 -6 -2 -6 -7 4 -11 22 -11 48
-20 46 -22 -3 0 -23 -6 -51 -12 -61 -9 -17 -10 -16 -11 9 0 15 -4 27 -10 27
-5 0 -10 -16 -10 -36 0 -19 -7 -42 -15 -50 -20 -21 -19 -61 3 -73 9 -6 12 -11
6 -11 -25 0 -37 30 -30 80 4 28 10 58 13 67 4 11 3 14 -5 9 -7 -4 -12 -1 -12
9 0 11 5 15 14 12 8 -3 17 1 20 9 3 8 1 14 -5 14 -6 0 -7 6 -2 13 12 19 14 47
3 47 -8 0 -15 -37 -11 -62 0 -4 -5 -5 -13 -2 -20 8 -30 -173 -10 -193 19 -19
18 -25 -11 -46 l-25 -18 0 46 c0 25 -5 45 -11 45 -5 0 -8 -4 -5 -8 8 -14 -14
-83 -25 -77 -5 4 -9 -8 -9 -24 0 -17 -4 -31 -9 -31 -8 0 1 68 12 86 3 5 2 25
-2 44 -7 35 -7 35 -14 -17 -5 -31 -13 -53 -20 -53 -7 0 -6 -4 3 -10 10 -6 11
-10 3 -10 -7 0 -13 -7 -13 -15 0 -9 -6 -12 -16 -8 -13 5 -15 18 -12 68 3 45 0
65 -11 75 -12 12 -14 11 -9 -8 4 -12 2 -25 -4 -28 -5 -3 -8 -27 -5 -53 2 -25
2 -38 0 -28 -8 31 -26 19 -19 -13 3 -16 1 -30 -4 -30 -8 0 -19 30 -55 150 -1
3 -7 16 -14 30 l-11 25 4 -25 c2 -14 12 -51 21 -84 20 -71 14 -83 -9 -21 -10
25 -24 45 -31 45 -12 0 -12 -4 0 -27 8 -15 12 -30 9 -35 -3 -4 -1 -8 4 -8 14
0 23 -43 11 -50 -6 -4 -4 -21 6 -44 9 -21 14 -41 11 -43 -3 -3 -1 -14 4 -24
12 -22 -24 -55 -257 -230 -95 -72 -173 -135 -173 -140 0 -6 -4 -8 -9 -4 -6 3
-15 -4 -21 -15 -6 -11 -15 -18 -19 -15 -5 2 -48 -24 -96 -60 -48 -36 -96 -65
-106 -65 -11 0 -50 -23 -86 -50 -70 -53 -99 -64 -203 -77 -52 -6 -66 -12 -68
-27 -4 -18 1 -19 99 -12 99 6 105 8 191 57 48 28 88 56 88 63 0 7 26 30 58 51
31 21 175 127 319 236 144 108 281 211 306 228 l44 30 11 -23 c13 -30 4 -42
-14 -18 -12 16 -12 16 -9 -3 2 -11 4 -23 4 -26 1 -3 10 -15 21 -27 11 -12 25
-32 30 -44 7 -18 9 -11 9 32 0 49 -1 53 -13 37 -8 -10 -17 -14 -20 -9 -3 6 1
12 9 15 9 4 13 19 12 44 -1 40 27 92 51 93 6 0 12 5 12 10 0 6 5 10 10 10 6 0
10 -7 10 -15 0 -8 -3 -14 -7 -12 -5 1 -9 -1 -10 -6 -2 -4 -1 -7 2 -7 3 0 10 0
16 0 7 0 9 11 6 27 -5 29 -8 26 130 146 151 130 238 203 272 227 32 22 35 22
46 6 9 -11 15 -13 20 -6 5 8 31 -15 50 -48 6 -8 241 117 283 150 6 6 33 12 60
13 126 6 215 -117 215 -299 1 -156 -108 -470 -217 -630 -43 -62 -46 -72 -46
-129 0 -64 21 -121 59 -164 22 -26 31 -29 31 -9 0 17 50 76 65 76 17 0 55 -96
43 -108 -5 -5 -11 -43 -13 -83 -2 -41 -6 -96 -10 -122 -6 -40 -4 -50 11 -62
10 -7 22 -11 25 -9 4 2 12 -3 19 -11 7 -8 25 -15 41 -15 21 0 29 -5 29 -17 1
-16 2 -16 15 1 8 11 15 15 15 9 0 -6 9 -13 20 -16 12 -3 20 -14 20 -27 0 -21
38 -99 53 -111 5 -3 2 -22 -6 -41 -11 -25 -12 -39 -5 -46 13 -13 2 -46 -12
-37 -6 3 -9 -4 -8 -17 2 -25 -66 -128 -85 -128 -5 0 -17 -7 -26 -15 -48 -44
-60 -52 -88 -64 -34 -14 -62 -43 -85 -87 -8 -16 -19 -38 -25 -49 -6 -11 -20
-40 -32 -65 -11 -25 -33 -58 -48 -75 -16 -16 -32 -38 -36 -48 -4 -11 -16 -21
-27 -24 -11 -3 -20 -9 -20 -14 0 -5 -12 -9 -26 -9 -19 0 -25 -4 -21 -15 4 -9
-5 -21 -23 -32 -21 -12 -26 -19 -17 -25 8 -5 7 -8 -4 -8 -9 0 -19 -9 -22 -20
-6 -25 -27 -26 -28 -2 -1 19 -4 11 -14 -31 -5 -23 -9 -27 -20 -17 -11 9 -16 7
-26 -8 -7 -11 -19 -17 -29 -15 -22 6 -74 -42 -67 -61 4 -9 -2 -17 -14 -21 -11
-4 -29 -16 -41 -28 -14 -15 -22 -18 -25 -9 -7 20 -23 14 -23 -9 0 -15 -5 -19
-15 -15 -8 3 -15 2 -15 -2 0 -4 -17 -16 -37 -27 -55 -30 -163 -27 -225 4 -27
14 -48 30 -48 38 0 7 -8 13 -19 13 -10 0 -24 7 -31 15 -7 8 -16 15 -21 15 -5
0 -9 -7 -9 -15 0 -18 -75 -22 -85 -5 -4 6 -3 10 2 9 7 -2 21 2 65 19 15 6 15
9 2 26 -12 17 -14 18 -14 3 0 -10 -8 -17 -20 -17 -14 0 -20 7 -20 21 0 11 -4
18 -8 15 -4 -2 -14 -1 -22 4 -10 6 -20 4 -32 -6 -11 -11 -28 -14 -55 -10 -21
3 -44 5 -50 6 -9 0 -11 10 -6 32 4 22 3 29 -5 24 -21 -13 -37 6 -18 20 26 19
16 50 -14 45 -14 -1 -27 -6 -30 -11 -11 -16 -269 -150 -290 -150 -5 0 -43 -13
-83 -29 -41 -16 -86 -28 -100 -27 -15 2 -27 -1 -27 -6 0 -10 -31 -3 -68 14
-18 10 -26 8 -47 -12 -21 -20 -29 -22 -44 -13 -14 9 -23 8 -38 -2 -19 -13 -63
-10 -63 4 0 3 7 19 15 35 9 16 14 30 12 32 -2 2 -18 -2 -35 -8 -20 -8 -32 -19
-32 -31 0 -10 -5 -17 -11 -15 -6 2 -9 6 -8 8 8 15 -25 50 -46 50 -23 0 -24 2
-13 25 8 18 8 29 1 36 -6 6 -8 24 -3 44 6 29 5 34 -9 33 -32 -2 -51 2 -51 12
0 6 -15 26 -34 44 -28 29 -43 35 -92 41 -64 7 -147 25 -141 32 3 2 33 10 68
19 93 22 169 47 169 56 0 4 5 8 12 8 6 0 34 11 62 24 113 53 137 60 156 48 16
-9 18 -9 14 2 -13 35 -136 27 -161 -10 -8 -13 -23 -24 -33 -24 -9 0 -25 -9
-35 -20 -10 -11 -28 -20 -41 -20 -13 0 -39 -8 -59 -17 -31 -15 -37 -15 -45 -3
-6 8 -10 18 -10 23 0 7 44 29 83 41 24 8 12 26 -16 26 -41 0 -127 25 -127 36
0 9 -31 24 -48 23 -1 0 -14 9 -29 21 -14 11 -31 20 -38 20 -26 0 -45 37 -46
91 -3 58 19 197 33 215 5 7 0 21 -12 36 -10 14 -17 28 -13 31 3 4 -1 9 -9 12
-8 3 -51 -15 -96 -40 -104 -57 -146 -60 -218 -13 -34 23 -43 34 -31 36 12 3
17 13 17 41 0 44 36 134 51 126 5 -4 9 -2 9 4 0 5 -5 13 -12 17 -8 5 -6 11 5
19 10 7 19 32 22 60 3 27 8 51 13 54 10 7 10 51 -1 67 -4 7 0 15 10 18 12 5
13 10 5 18 -7 7 -8 16 -3 22 5 6 16 45 25 87 17 76 34 113 55 115 6 1 18 2 27
3 8 0 12 6 9 11 -4 6 7 10 25 10 40 0 35 21 -8 35 -17 6 -33 13 -35 15 -3 3
-7 33 -10 67 -4 35 -11 72 -17 82 -5 11 -10 29 -10 41 0 11 -11 31 -25 44 -14
13 -25 27 -25 30 0 4 -18 25 -40 47 -22 22 -40 49 -40 59 0 13 -7 20 -20 20
-19 0 -24 12 -22 49 0 8 -7 20 -15 26 -13 10 -13 16 -3 34 7 14 8 21 1 17 -11
-7 -31 24 -31 48 0 20 36 21 44 1 3 -8 10 -15 16 -15 6 0 9 4 5 9 -3 5 -1 12
5 16 5 3 12 -6 16 -20 7 -28 6 -27 28 -19 9 3 13 10 10 15 -3 5 1 9 8 9 9 0 9
3 -2 10 -11 7 -17 5 -22 -8 -4 -12 -7 -7 -7 16 -1 22 4 32 14 32 8 0 15 7 15
15 0 8 5 15 10 15 6 0 10 5 10 10 0 6 -7 10 -15 10 -8 0 -15 7 -15 15 0 8 5
15 10 15 6 0 10 -4 10 -8 0 -4 9 -8 20 -9 11 -1 20 4 20 13 0 8 3 13 8 11 4
-1 17 8 30 21 l22 22 -27 1 c-16 0 -22 3 -15 6 17 7 15 23 -3 23 -8 0 -15 4
-15 9 0 6 16 7 35 4 29 -5 34 -3 30 9 -7 18 19 48 41 48 8 0 14 5 14 10 0 6
-7 10 -15 10 -8 0 -15 -4 -15 -10 0 -5 -7 -10 -15 -10 -25 0 -17 17 12 25 34
8 61 45 33 45 -5 0 -10 -8 -10 -17 0 -13 -3 -14 -12 -5 -9 9 -14 7 -24 -6 -11
-15 -15 -15 -40 -2 -26 14 -26 15 -5 18 16 3 20 8 16 23 -4 11 -2 19 4 19 6 0
11 -7 11 -16 0 -13 3 -14 14 -5 11 9 15 9 19 -1 3 -7 6 -1 6 13 1 15 8 29 16
33 13 4 14 2 5 -14 -13 -24 -11 -24 26 -6 15 8 31 13 35 10 5 -3 17 4 28 15
19 19 19 19 -7 27 -15 4 -43 7 -62 6 l-35 -2 30 13 c17 6 31 18 33 25 2 10 -2
10 -17 2 -11 -5 -27 -7 -35 -4 -9 3 -16 1 -16 -5 0 -6 -7 -11 -16 -11 -8 0
-12 -4 -9 -10 3 -5 0 -10 -8 -10 -8 0 -17 7 -21 15 -3 10 1 15 14 15 10 0 22
5 25 10 3 6 17 10 31 10 13 0 33 6 44 13 17 10 22 9 30 -3 11 -17 12 -14 14
30 1 19 -4 30 -12 30 -7 0 -10 -4 -7 -10 3 -6 -1 -7 -10 -4 -9 4 -14 13 -11
20 3 9 -2 14 -14 14 -11 0 -20 4 -20 9 0 4 11 6 25 3 14 -2 25 -8 25 -13 0 -5
7 -9 16 -9 14 0 14 3 4 15 -9 11 -9 15 -1 15 7 0 9 5 6 10 -3 6 3 10 13 10 11
0 26 8 33 17 10 11 10 14 2 9 -7 -4 -13 -2 -13 3 0 6 9 11 20 11 26 0 26 -26
0 -65 -21 -31 -27 -60 -11 -50 6 3 14 -2 19 -10 8 -15 10 -15 21 -1 8 9 9 16
4 16 -5 0 -8 14 -5 30 2 17 9 30 14 30 5 0 7 -4 3 -9 -3 -5 -1 -12 5 -16 5 -3
10 3 10 14 0 12 -4 21 -10 21 -18 0 -11 20 8 21 9 0 12 3 5 5 -7 3 -10 11 -7
18 4 10 -2 12 -20 9 -18 -4 -28 0 -32 11 -3 9 -17 16 -29 16 -13 0 -26 4 -29
9 -4 5 3 7 14 4 19 -5 29 12 11 19 -5 2 -1 14 10 27 11 13 22 21 26 17 4 -3
-2 -13 -13 -20 -18 -14 -18 -15 -1 -33 17 -17 18 -17 11 0 -4 12 -1 17 11 17
13 0 16 -6 11 -25 -7 -28 -1 -32 20 -11 11 11 11 16 1 19 -6 3 -4 6 7 6 14 1
17 -4 13 -19 -3 -11 -1 -18 4 -14 16 10 9 36 -11 41 -24 6 -27 23 -4 23 8 0
12 5 9 11 -4 6 -13 8 -21 5 -7 -3 -16 -1 -19 4 -3 5 17 9 45 8 28 0 54 3 57 6
4 3 -6 6 -20 6 -22 0 -27 5 -27 24 0 15 7 27 18 30 10 3 6 4 -8 3 -20 -2 -25
-7 -25 -29 1 -16 -3 -28 -7 -28 -4 0 -8 5 -8 10 0 6 -6 9 -12 8 -13 -3 -14 2
-9 40 2 15 3 15 11 -3 8 -19 9 -19 9 2 1 12 6 25 11 28 6 4 7 11 4 17 -5 7 -2
8 5 4 7 -5 10 -14 7 -22 -3 -9 2 -14 14 -14 13 0 18 5 14 15 -4 8 -1 15 5 15
6 0 11 11 11 24 0 13 7 26 15 30 25 9 17 25 -11 20 -16 -3 -24 0 -23 8 5 37
-2 57 -16 52 -8 -4 -15 -10 -15 -16 0 -5 5 -6 10 -3 6 3 10 1 10 -4 0 -6 -9
-11 -20 -11 -24 0 -25 8 -2 36 29 34 57 45 87 34 31 -12 49 -4 41 16 -3 8 -2
14 3 14 5 0 23 3 40 6 26 6 30 4 25 -10 -8 -20 9 -21 26 -1 6 8 15 14 18 13 4
0 12 1 17 2 6 2 21 3 35 4 14 0 25 5 25 11 0 5 -7 8 -15 7 -11 -3 -12 -1 -4 8
8 8 18 9 30 2 25 -13 76 4 54 18 -14 9 -12 12 6 9 4 0 10 4 14 11 12 19 68 21
81 2 9 -15 10 -15 5 0 -3 11 3 18 20 22 13 4 24 10 24 15 0 5 18 8 40 8 24 -1
40 -7 40 -14z m1062 -65 c-7 -7 -12 -8 -12 -2 0 14 12 26 19 19 2 -3 -1 -11
-7 -17z m-42 -13 c0 -8 -2 -15 -4 -15 -2 0 -6 7 -10 15 -3 8 -1 15 4 15 6 0
10 -7 10 -15z m184 -32 c-7 -38 -16 -45 -10 -8 5 36 5 35 10 35 3 0 2 -12 0
-27z m59 2 c-3 -9 -8 -14 -10 -11 -3 3 -2 9 2 15 9 16 15 13 8 -4z m57 -62
c-7 -24 -8 -21 -9 22 0 38 2 45 9 28 5 -12 5 -34 0 -50z m-1820 53 c0 -3 -4
-8 -10 -11 -5 -3 -10 -1 -10 4 0 6 5 11 10 11 6 0 10 -2 10 -4z m1540 -26 c0
-5 -5 -10 -11 -10 -5 0 -7 5 -4 10 3 6 8 10 11 10 2 0 4 -4 4 -10z m196 -16
c-4 -9 -9 -15 -11 -12 -3 3 -3 13 1 22 4 9 9 15 11 12 3 -3 3 -13 -1 -22z
m163 -43 c1 -48 -5 -35 -12 24 -4 32 -3 43 3 30 5 -11 9 -35 9 -54z m-700 -2
c-12 -23 -21 -25 -13 -4 4 8 3 15 0 15 -4 0 -11 -10 -16 -22 -7 -18 -9 -19 -9
-5 -1 9 -6 17 -12 17 -7 0 -9 -10 -5 -25 4 -14 2 -25 -3 -25 -6 0 -8 -7 -5
-15 4 -10 0 -15 -14 -15 -29 0 -32 20 -9 54 12 16 16 26 9 22 -7 -4 -12 -3
-12 3 0 6 13 9 29 7 19 -2 32 2 35 10 3 8 12 11 20 8 12 -5 13 -11 5 -25z
m134 16 c-3 -9 -8 -14 -10 -11 -3 3 -2 9 2 15 9 16 15 13 8 -4z m190 -23 c-3
-12 -9 -22 -14 -22 -5 0 -3 11 3 25 13 30 20 28 11 -3z m64 -4 c-3 -8 -6 -5
-6 6 -1 11 2 17 5 13 3 -3 4 -12 1 -19z m-364 -3 c-3 -9 -8 -14 -10 -11 -3 3
-2 9 2 15 9 16 15 13 8 -4z m564 -17 c-3 -7 -5 -2 -5 12 0 14 2 19 5 13 2 -7
2 -19 0 -25z m-527 -13 c-6 -15 -13 -25 -16 -23 -2 3 1 17 7 32 16 34 23 27 9
-9z m239 -8 c1 -4 -5 -2 -13 5 -7 7 -11 19 -8 27 4 11 7 10 13 -5 4 -10 8 -23
8 -27z m-83 8 c-4 -14 -16 -40 -27 -58 -17 -27 -19 -28 -13 -7 3 14 10 27 15
30 4 3 11 18 14 33 4 15 9 27 12 27 3 0 2 -11 -1 -25z m-222 -12 c-6 -22 -54
-61 -54 -44 0 5 7 11 15 15 8 3 20 17 25 32 12 31 22 28 14 -3z m383 5 c-3 -8
-6 -5 -6 6 -1 11 2 17 5 13 3 -3 4 -12 1 -19z m191 -28 c-1 -28 -6 -54 -11
-57 -6 -3 -7 -1 -3 5 3 6 1 14 -4 17 -7 4 -8 19 -4 38 13 65 23 63 22 -3z
m-148 10 c0 -5 -2 -10 -4 -10 -3 0 -8 5 -11 10 -3 6 -1 10 4 10 6 0 11 -4 11
-10z m-1704 -27 c-10 -10 -19 5 -10 18 6 11 8 11 12 0 2 -7 1 -15 -2 -18z
m1104 23 c0 -3 -4 -8 -10 -11 -5 -3 -10 -1 -10 4 0 6 5 11 10 11 6 0 10 -2 10
-4z m476 -56 c2 -35 0 -50 -9 -50 -7 0 -13 -9 -13 -20 0 -11 4 -20 9 -20 5 0
7 -7 4 -15 -4 -8 -2 -17 3 -20 6 -4 10 -12 10 -18 0 -8 -3 -8 -9 1 -9 15 -26
0 -34 -33 -3 -13 -5 -9 -6 13 0 17 4 32 9 32 6 0 9 17 8 38 -3 43 12 155 19
148 3 -3 7 -28 9 -56z m-426 30 c0 -5 -2 -10 -4 -10 -3 0 -8 5 -11 10 -3 6 -1
10 4 10 6 0 11 -4 11 -10z m30 -45 c-7 -25 -15 -43 -18 -41 -2 3 2 25 9 50 7
25 15 43 17 41 3 -2 -1 -25 -8 -50z m487 33 c-3 -8 -6 -5 -6 6 -1 11 2 17 5
13 3 -3 4 -12 1 -19z m-846 -21 c-10 -9 -11 -8 -5 6 3 10 9 15 12 12 3 -3 0
-11 -7 -18z m490 0 c-10 -9 -11 -8 -5 6 3 10 9 15 12 12 3 -3 0 -11 -7 -18z
m-431 3 c0 -5 -5 -10 -11 -10 -5 0 -7 5 -4 10 3 6 8 10 11 10 2 0 4 -4 4 -10z
m787 -22 c-3 -8 -6 -5 -6 6 -1 11 2 17 5 13 3 -3 4 -12 1 -19z m-554 -23 c-3
-9 -8 -14 -10 -11 -3 3 -2 9 2 15 9 16 15 13 8 -4z m873 -37 c-6 -72 -20 -116
-30 -99 -5 7 -3 18 3 24 6 6 11 34 11 62 0 46 5 65 17 65 2 0 2 -24 -1 -52z
m-1144 6 c-9 -16 -10 -14 -9 8 1 15 6 23 11 18 4 -4 4 -16 -2 -26z m138 16 c0
-5 -5 -10 -11 -10 -5 0 -7 5 -4 10 3 6 8 10 11 10 2 0 4 -4 4 -10z m686 -5
c-3 -8 0 -15 6 -15 6 0 9 -3 5 -6 -10 -11 -26 6 -20 21 3 8 7 15 10 15 3 0 3
-7 -1 -15z m514 -15 c0 -16 -4 -30 -8 -30 -9 0 -13 27 -6 48 6 22 14 13 14
-18z m-980 -20 l-8 -35 -1 31 c-1 17 2 34 6 37 11 12 12 3 3 -33z m698 -68
c-1 -45 -5 -79 -10 -76 -4 3 -8 0 -8 -6 0 -6 6 -13 14 -16 9 -3 17 -27 22 -60
3 -30 10 -54 15 -54 5 0 9 -7 9 -15 0 -8 -7 -15 -16 -15 -8 0 -12 4 -9 10 3 5
-6 22 -21 37 -26 26 -28 26 -35 8 -5 -12 -7 6 -7 47 1 37 4 65 8 63 3 -2 3 19
0 48 -5 38 -3 55 7 66 10 9 13 25 9 43 -5 25 -4 27 9 15 10 -11 14 -37 13 -95z
m-2030 54 c-7 -8 -15 -12 -17 -11 -5 6 10 25 20 25 5 0 4 -6 -3 -14z m1322
-36 c0 -5 -2 -10 -4 -10 -3 0 -8 5 -11 10 -3 6 -1 10 4 10 6 0 11 -4 11 -10z
m-1456 -45 c-12 -9 -14 -14 -6 -15 18 0 5 -20 -13 -20 -10 0 -12 6 -8 18 7 19
35 43 42 36 3 -2 -4 -11 -15 -19z m2377 -125 c3 -55 1 -65 -13 -68 -16 -3 -18
6 -18 76 0 44 3 95 7 113 l7 34 7 -45 c4 -25 8 -74 10 -110z m-350 125 c2 -23
4 -29 12 -42 4 -6 3 -14 -3 -18 -5 -3 -7 -20 -3 -38 3 -18 3 -29 -1 -26 -10 9
-24 139 -14 139 4 0 9 -7 9 -15z m-1876 -5 c-3 -5 -11 -10 -16 -10 -6 0 -7 5
-4 10 3 6 11 10 16 10 6 0 7 -4 4 -10z m1105 3 c0 -5 -5 -15 -10 -23 -8 -12
-10 -11 -10 8 0 12 5 22 10 22 6 0 10 -3 10 -7z m1036 -18 c3 -14 10 -22 15
-19 8 4 4 -39 -6 -73 -2 -6 0 -13 4 -15 5 -2 12 -18 16 -35 6 -32 5 -33 -23
-33 -21 0 -32 6 -35 18 -4 13 -5 11 -6 -5 -1 -29 -21 -29 -42 0 -12 17 -17 44
-16 102 0 44 2 74 4 68 3 -7 12 -13 21 -13 12 0 13 -3 4 -12 -14 -14 -16 -78
-3 -78 13 0 21 25 22 68 1 20 3 29 6 19 2 -9 9 -14 15 -10 8 4 9 0 4 -13 -15
-38 -18 -72 -7 -79 6 -3 11 -3 10 2 -1 4 3 21 10 38 10 23 10 35 -1 55 -7 14
-14 28 -16 33 -2 4 1 7 7 7 6 0 13 -11 17 -25z m-2163 -19 c16 -13 16 -13 -6
-13 -13 0 -24 5 -24 13 0 17 7 17 30 0z m1251 -2 c3 -8 2 -12 -4 -9 -6 3 -10
10 -10 16 0 14 7 11 14 -7z m1081 -4 c3 -5 2 -10 -4 -10 -5 0 -13 5 -16 10 -3
6 -2 10 4 10 5 0 13 -4 16 -10z m-2395 -20 c0 -5 -7 -10 -16 -10 -8 0 -12 5
-9 10 3 6 10 10 16 10 5 0 9 -4 9 -10z m-53 -13 c11 4 14 2 11 -8 -2 -8 -17
-15 -32 -17 -25 -3 -26 -2 -14 17 7 12 14 17 16 12 2 -6 10 -7 19 -4z m2458 3
c3 -5 1 -10 -4 -10 -6 0 -11 5 -11 10 0 6 2 10 4 10 3 0 8 -4 11 -10z m-60
-20 c3 -5 1 -10 -4 -10 -6 0 -11 5 -11 10 0 6 2 10 4 10 3 0 8 -4 11 -10z
m263 -25 c-3 -3 -9 2 -12 12 -6 14 -5 15 5 6 7 -7 10 -15 7 -18z m-2783 -14
c-3 -6 3 -14 12 -20 17 -10 17 -10 1 -11 -10 0 -18 2 -18 4 0 2 -3 11 -6 20
-3 9 -1 16 6 16 6 0 9 -4 5 -9z m107 -7 c-13 -9 -26 -13 -30 -9 -8 8 17 25 38
25 9 0 6 -6 -8 -16z m2035 -26 c-3 -7 -5 -2 -5 12 0 14 2 19 5 13 2 -7 2 -19
0 -25z m-2032 -7 c-3 -6 -11 -8 -17 -5 -6 4 -5 9 3 15 16 10 23 4 14 -10z
m-150 -1 c3 -5 1 -10 -4 -10 -6 0 -11 5 -11 10 0 6 2 10 4 10 3 0 8 -4 11 -10z
m2315 -25 c0 -8 -4 -17 -10 -20 -6 -4 -10 5 -10 20 0 15 4 24 10 20 6 -3 10
-12 10 -20z m-32 -20 c1 -13 -3 -27 -8 -30 -6 -4 -10 7 -10 24 0 37 15 42 18
6z m-2278 -20 c0 -8 -4 -15 -9 -15 -13 0 -22 16 -14 24 11 11 23 6 23 -9z
m235 -25 c3 -6 -4 -10 -17 -10 -18 0 -20 2 -8 10 19 12 18 12 25 0z m1695
-334 c0 -2 -8 -10 -17 -17 -16 -13 -17 -12 -4 4 13 16 21 21 21 13z m-2030
-32 c0 -8 -5 -12 -10 -9 -6 4 -8 11 -5 16 9 14 15 11 15 -7z m-470 -260 c0 -8
-5 -12 -10 -9 -6 4 -8 11 -5 16 9 14 15 11 15 -7z m-23 -56 c-3 -8 -6 -5 -6 6
-1 11 2 17 5 13 3 -3 4 -12 1 -19z m56 11 c7 0 3 -4 -8 -9 -29 -13 -35 -12
-35 6 0 11 5 14 16 10 9 -3 21 -6 27 -7z m44 -83 c-6 -17 -47 -20 -47 -3 0 9
6 17 13 20 18 6 38 -4 34 -17z m332 -57 c84 -43 103 -71 59 -85 -22 -7 -48 16
-48 43 0 7 -6 13 -14 13 -7 0 -19 7 -26 15 -7 8 -23 15 -35 15 -22 0 -40 22
-28 34 9 8 3 11 92 -35z m-199 -139 c0 -5 3 -9 8 -8 20 7 73 -28 102 -66 17
-24 43 -49 55 -56 28 -15 40 -41 24 -51 -16 -9 -105 41 -151 86 -35 33 -42 46
-39 67 0 4 -6 5 -14 2 -15 -6 -21 16 -8 29 10 10 23 8 23 -3z m329 -36 c25
-32 25 -34 7 -60 -14 -18 -15 -18 -25 9 -30 78 -21 101 18 51z m1141 1 c0 -2
-28 -23 -61 -46 -34 -23 -59 -36 -55 -30 6 10 106 81 113 81 2 0 3 -2 3 -5z
m1925 -345 c3 -5 1 -10 -4 -10 -6 0 -11 5 -11 10 0 6 2 10 4 10 3 0 8 -4 11
-10z m-1232 -1247 c-7 -2 -19 -2 -25 0 -7 3 -2 5 12 5 14 0 19 -2 13 -5z
m-2460 -179 c9 -3 17 -9 17 -14 0 -4 16 -17 35 -29 19 -11 35 -27 35 -36 0 -8
4 -15 9 -15 12 0 11 -24 -2 -115 -5 -38 -10 -88 -11 -110 l-1 -40 -60 -5 c-93
-8 -121 -30 -151 -120 -15 -46 -19 -86 -19 -242 0 -102 -3 -190 -7 -194 -8 -8
-86 13 -102 28 -6 4 -18 8 -27 8 -10 0 -20 8 -24 18 -3 11 -15 24 -28 30 -36
19 -59 35 -92 64 -36 34 -66 37 -58 8 7 -25 -5 -25 -37 0 -14 11 -30 20 -36
20 -26 0 -94 42 -114 70 -12 16 -26 30 -31 30 -5 0 -18 9 -29 20 -11 11 -28
20 -38 20 -10 0 -23 5 -29 11 -12 12 -83 4 -83 -9 0 -5 -19 -18 -42 -30 -24
-13 -68 -37 -98 -54 l-54 -30 -14 21 c-8 11 -21 21 -28 21 -8 0 -19 12 -25 27
-6 16 -17 36 -26 45 -15 17 -14 34 9 128 6 25 15 49 19 54 5 6 9 29 9 53 0 24
3 43 8 43 4 0 12 10 17 22 6 12 23 31 39 42 l28 21 15 -22 c9 -13 21 -23 28
-23 7 0 16 -7 19 -16 4 -9 9 -14 12 -11 3 3 21 -1 40 -9 18 -8 37 -13 41 -12
5 1 21 -6 37 -17 16 -11 42 -18 61 -17 19 2 36 -2 40 -8 11 -18 25 -11 25 14
0 13 7 26 15 30 8 3 15 15 15 26 0 11 9 28 19 37 11 9 17 22 14 29 -3 8 6 19
21 25 14 7 26 20 26 31 0 13 8 18 28 20 52 2 57 4 55 16 -4 18 34 34 91 38 28
2 56 4 61 5 6 1 18 -2 27 -6 10 -4 24 1 38 15 11 11 25 18 30 15 5 -3 22 7 38
23 35 36 86 54 129 46 27 -5 33 -3 33 11 0 16 20 16 83 -1z m361 -220 c25 -10
19 -21 -14 -26 -16 -3 -30 -1 -30 4 0 5 -4 7 -9 3 -5 -3 -12 -1 -15 4 -9 15
41 25 68 15z m-259 -366 c19 -47 28 -104 21 -133 -7 -29 -24 -33 -33 -7 -4 9
-14 22 -23 29 -22 15 -44 94 -35 122 11 35 53 28 70 -11z"/>
<path d="M3038 5213 c7 -3 16 -2 19 1 4 3 -2 6 -13 5 -11 0 -14 -3 -6 -6z"/>
<path d="M2640 5090 c-24 -8 -23 -8 8 -9 20 -1 31 3 27 9 -3 6 -7 10 -8 9 -1
-1 -13 -5 -27 -9z"/>
<path d="M3222 5088 c-7 -7 -12 -16 -12 -21 0 -5 7 -1 16 8 9 9 14 18 12 20
-2 3 -10 -1 -16 -7z"/>
<path d="M2618 5058 c-8 -20 3 -43 12 -28 5 8 10 8 14 2 3 -5 -5 -17 -19 -26
-24 -16 -25 -15 -25 4 0 11 -4 20 -10 20 -5 0 -10 -7 -10 -15 0 -9 -9 -26 -20
-37 -22 -24 -22 -39 1 -47 11 -3 12 -1 2 10 -11 14 4 17 102 21 14 0 20 7 20
24 0 13 -3 24 -7 24 -5 0 -8 5 -8 10 0 16 22 12 36 -7 13 -17 14 -17 7 2 -3
11 -10 25 -14 31 -5 6 -6 14 -2 17 9 10 -12 8 -42 -3 -17 -7 -24 -7 -20 0 3 6
2 10 -3 10 -6 0 -12 -6 -14 -12z m32 -78 c-14 -4 -34 -8 -45 -8 l-20 -1 20 9
c11 5 31 8 45 8 l25 0 -25 -8z"/>
<path d="M2520 4910 c0 -5 5 -10 11 -10 5 0 7 5 4 10 -3 6 -8 10 -11 10 -2 0
-4 -4 -4 -10z"/>
<path d="M2578 4893 c7 -3 16 -2 19 1 4 3 -2 6 -13 5 -11 0 -14 -3 -6 -6z"/>
<path d="M3910 4775 c5 -21 4 -35 -2 -35 -5 0 -6 -10 -3 -21 5 -15 4 -19 -4
-15 -7 5 -11 -3 -10 -21 0 -16 3 -22 6 -13 3 8 14 23 24 33 14 15 16 25 8 38
-5 10 -7 30 -3 44 5 18 2 25 -9 25 -12 0 -13 -7 -7 -35z"/>
<path d="M3289 4788 c-3 -28 -4 -32 -12 -45 -11 -17 1 -16 19 1 10 11 11 21 5
38 -8 18 -10 19 -12 6z"/>
<path d="M2510 4763 c-13 -15 -12 -16 4 -10 10 4 20 7 22 7 2 0 4 5 4 10 0 15
-13 12 -30 -7z"/>
<path d="M3716 4715 c-9 -48 -2 -55 13 -14 7 19 8 36 2 42 -5 5 -11 -7 -15
-28z"/>
<path d="M3970 4716 c0 -14 5 -28 10 -31 6 -3 10 5 10 19 0 14 -4 28 -10 31
-6 3 -10 -5 -10 -19z"/>
<path d="M3801 4677 c-8 -117 9 -275 35 -317 9 -14 13 -17 10 -8 -21 71 -27
113 -28 218 -1 67 -5 123 -9 126 -4 2 -8 -6 -8 -19z"/>
<path d="M3263 4657 c3 -21 2 -37 -4 -37 -11 0 -11 -11 1 -30 8 -13 11 -13 22
-1 11 12 10 13 -2 6 -12 -6 -12 -5 -3 5 8 9 9 20 2 37 -5 14 -7 28 -4 33 3 5
0 12 -6 16 -9 5 -10 -3 -6 -29z"/>
<path d="M3931 4675 c0 -11 4 -27 9 -35 9 -13 10 -13 9 0 0 8 -4 24 -9 35 l-9
20 0 -20z"/>
<path d="M3300 4669 c0 -5 5 -7 10 -4 6 3 10 8 10 11 0 2 -4 4 -10 4 -5 0 -10
-5 -10 -11z"/>
<path d="M3232 4650 c0 -14 2 -19 5 -12 2 6 2 18 0 25 -3 6 -5 1 -5 -13z"/>
<path d="M4122 4645 c0 -16 2 -22 5 -12 2 9 2 23 0 30 -3 6 -5 -1 -5 -18z"/>
<path d="M3646 4635 c-4 -14 -2 -33 3 -43 8 -13 10 -8 11 26 0 48 -5 54 -14
17z"/>
<path d="M3706 4645 c-3 -9 -10 -13 -16 -10 -5 3 -10 2 -10 -4 0 -20 19 -21
30 0 7 11 10 23 7 25 -2 3 -7 -2 -11 -11z"/>
<path d="M3981 4644 c0 -11 3 -14 6 -6 3 7 2 16 -1 19 -3 4 -6 -2 -5 -13z"/>
<path d="M3563 4635 c-10 -10 -9 -16 2 -25 13 -10 15 -8 15 14 0 30 -1 30 -17
11z"/>
<path d="M2370 4630 c0 -5 5 -10 10 -10 6 0 10 5 10 10 0 6 -4 10 -10 10 -5 0
-10 -4 -10 -10z"/>
<path d="M4215 4599 c5 -15 4 -19 -4 -15 -6 4 -11 2 -11 -3 0 -6 7 -11 15 -11
9 0 15 9 15 25 0 14 -5 25 -11 25 -6 0 -8 -9 -4 -21z"/>
<path d="M4084 4586 c-3 -14 -4 -31 -1 -38 3 -7 6 1 6 17 1 23 4 27 11 15 8
-13 10 -13 10 2 0 28 -19 31 -26 4z"/>
<path d="M3924 4587 c3 -10 6 -23 6 -28 0 -5 7 -9 15 -9 20 0 19 7 -6 33 -18
18 -21 19 -15 4z"/>
<path d="M2362 4570 c0 -14 2 -19 5 -12 2 6 2 18 0 25 -3 6 -5 1 -5 -13z"/>
<path d="M4160 4565 c0 -14 4 -25 9 -25 4 0 6 11 3 25 -2 14 -6 25 -8 25 -2 0
-4 -11 -4 -25z"/>
<path d="M4321 4574 c0 -11 3 -14 6 -6 3 7 2 16 -1 19 -3 4 -6 -2 -5 -13z"/>
<path d="M3387 4558 c-3 -8 -2 -21 3 -27 11 -19 23 5 12 25 -8 14 -10 14 -15
2z"/>
<path d="M2482 4540 c0 -14 2 -19 5 -12 2 6 2 18 0 25 -3 6 -5 1 -5 -13z"/>
<path d="M3981 4534 c0 -11 3 -14 6 -6 3 7 2 16 -1 19 -3 4 -6 -2 -5 -13z"/>
<path d="M4203 4515 c-1 -20 2 -33 6 -31 9 6 13 66 4 66 -5 0 -9 -16 -10 -35z"/>
<path d="M3306 4525 c4 -8 11 -15 16 -15 6 0 5 6 -2 15 -7 8 -14 15 -16 15 -2
0 -1 -7 2 -15z"/>
<path d="M3541 4527 c-8 -10 -7 -14 2 -14 8 0 14 6 14 14 0 7 -1 13 -2 13 -2
0 -8 -6 -14 -13z"/>
<path d="M3902 4520 c0 -14 2 -19 5 -12 2 6 2 18 0 25 -3 6 -5 1 -5 -13z"/>
<path d="M2510 4510 c-9 -6 -10 -10 -3 -10 6 0 15 5 18 10 8 12 4 12 -15 0z"/>
<path d="M3951 4513 c0 -6 -4 -20 -7 -30 -5 -14 -4 -15 5 -7 7 7 11 20 8 30
-3 11 -5 14 -6 7z"/>
<path d="M3982 4485 c0 -16 2 -22 5 -12 2 9 2 23 0 30 -3 6 -5 -1 -5 -18z"/>
<path d="M2330 4490 c0 -5 4 -10 9 -10 6 0 13 5 16 10 3 6 -1 10 -9 10 -9 0
-16 -4 -16 -10z"/>
<path d="M3400 4485 c0 -8 4 -15 10 -15 5 0 7 7 4 15 -4 8 -8 15 -10 15 -2 0
-4 -7 -4 -15z"/>
<path d="M3770 4489 c0 -5 5 -7 10 -4 6 3 10 8 10 11 0 2 -4 4 -10 4 -5 0 -10
-5 -10 -11z"/>
<path d="M2408 4483 c7 -3 16 -2 19 1 4 3 -2 6 -13 5 -11 0 -14 -3 -6 -6z"/>
<path d="M2457 4479 c7 -9 10 -19 6 -22 -3 -4 -1 -7 5 -7 17 0 15 16 -5 31
-16 12 -17 12 -6 -2z"/>
<path d="M3962 4450 c0 -14 2 -19 5 -12 2 6 2 18 0 25 -3 6 -5 1 -5 -13z"/>
<path d="M3400 4448 c0 -4 7 -8 15 -8 8 0 15 4 15 8 0 5 -7 9 -15 9 -8 0 -15
-4 -15 -9z"/>
<path d="M3460 4449 c0 -5 5 -7 10 -4 6 3 10 8 10 11 0 2 -4 4 -10 4 -5 0 -10
-5 -10 -11z"/>
<path d="M3792 4430 c0 -14 2 -19 5 -12 2 6 2 18 0 25 -3 6 -5 1 -5 -13z"/>
<path d="M3480 4431 c0 -6 4 -13 10 -16 6 -3 7 1 4 9 -7 18 -14 21 -14 7z"/>
<path d="M2355 4420 c-3 -6 1 -7 9 -4 18 7 21 14 7 14 -6 0 -13 -4 -16 -10z"/>
<path d="M4042 4410 c0 -14 2 -19 5 -12 2 6 2 18 0 25 -3 6 -5 1 -5 -13z"/>
<path d="M4960 4427 c0 -1 9 -28 20 -60 11 -31 20 -70 20 -86 0 -16 5 -42 11
-57 17 -46 19 -188 3 -241 -16 -52 -18 -76 -5 -53 29 50 55 190 54 290 0 114
-15 166 -55 194 -20 14 -48 22 -48 13z"/>
<path d="M3961 4404 c0 -11 3 -14 6 -6 3 7 2 16 -1 19 -3 4 -6 -2 -5 -13z"/>
<path d="M3426 4397 c3 -10 9 -15 12 -12 3 3 0 11 -7 18 -10 9 -11 8 -5 -6z"/>
<path d="M3941 4384 c0 -11 3 -14 6 -6 3 7 2 16 -1 19 -3 4 -6 -2 -5 -13z"/>
<path d="M2350 4380 c-8 -5 -10 -10 -5 -10 6 0 17 5 25 10 8 5 11 10 5 10 -5
0 -17 -5 -25 -10z"/>
<path d="M3970 4359 c0 -5 -4 -8 -9 -5 -4 3 -6 -7 -2 -22 5 -25 6 -25 9 -4 2
12 8 20 13 17 5 -3 6 1 3 9 -7 18 -14 21 -14 5z"/>
<path d="M3980 4300 c0 -5 5 -10 10 -10 6 0 10 5 10 10 0 6 -4 10 -10 10 -5 0
-10 -4 -10 -10z"/>
<path d="M3831 4274 c0 -11 3 -14 6 -6 3 7 2 16 -1 19 -3 4 -6 -2 -5 -13z"/>
<path d="M3910 4233 c0 -6 8 -17 18 -24 16 -13 16 -13 2 6 -8 11 -16 22 -17
24 -2 2 -3 0 -3 -6z"/>
<path d="M4770 4125 c0 -3 16 -29 35 -59 31 -45 34 -57 26 -79 -11 -27 -75
-67 -110 -67 -16 0 -20 -8 -23 -42 -3 -37 -8 -45 -35 -59 -22 -11 -43 -35 -63
-74 -16 -31 -30 -61 -30 -66 0 -17 68 -9 103 11 18 11 48 40 66 65 18 25 50
54 71 65 55 28 120 93 120 119 0 38 -22 115 -39 135 -23 27 -121 68 -121 51z"/>
<path d="M4097 4047 c-4 -10 -7 -31 -6 -45 l0 -27 10 25 c5 13 8 33 7 45 -3
19 -4 19 -11 2z"/>
<path d="M4011 3994 c0 -21 4 -61 8 -89 6 -49 7 -50 14 -16 4 18 5 36 3 40 -3
4 -7 26 -10 50 -6 56 -16 66 -15 15z"/>
<path d="M2021 3964 c0 -11 3 -14 6 -6 3 7 2 16 -1 19 -3 4 -6 -2 -5 -13z"/>
<path d="M2047 3973 c-5 -7 -5 -19 0 -25 4 -7 13 -29 20 -48 l11 -35 -1 42
c-1 24 -5 43 -9 43 -3 0 -8 8 -10 18 -3 12 -6 14 -11 5z"/>
<path d="M2616 3953 c-4 -4 -35 -9 -69 -9 -69 -2 -125 -12 -133 -25 -3 -5 -24
-9 -47 -9 -23 0 -48 -4 -56 -9 -17 -11 -6 -32 13 -25 8 3 17 1 21 -5 3 -6 1
-11 -4 -11 -6 0 -11 -10 -11 -23 0 -21 4 -22 73 -22 l73 1 -3 -51 c-4 -61 21
-117 56 -125 26 -6 42 -35 33 -59 -4 -10 -1 -13 10 -9 9 4 20 2 25 -3 15 -15
73 -22 73 -10 0 15 57 14 63 -1 3 -8 6 -9 6 -2 1 14 51 6 51 -8 0 -8 38 -7
109 2 2 0 1 7 -3 15 -3 8 -1 15 4 15 6 0 10 -4 10 -10 0 -5 5 -10 11 -10 6 0
9 9 6 19 -5 21 18 37 28 21 9 -15 25 -12 25 5 0 8 5 15 10 15 6 0 10 7 10 15
0 8 7 15 15 15 8 0 15 5 15 10 0 17 -22 11 -58 -16 -28 -22 -36 -24 -43 -13
-7 11 -10 9 -15 -8 -3 -12 -12 -24 -20 -27 -12 -5 -13 1 -8 32 4 20 7 46 6 57
-1 11 2 15 6 10 9 -13 42 -18 42 -6 0 5 -24 15 -52 21 -29 7 -71 18 -93 25
-22 7 -52 16 -67 19 -17 4 -28 13 -28 24 0 13 -2 14 -9 3 -5 -7 -14 -10 -20
-6 -17 10 17 34 48 35 13 0 22 3 18 6 -8 8 18 34 34 34 8 0 8 4 -2 16 -11 13
-9 14 17 8 28 -6 28 -6 9 9 -27 22 2 23 29 2 30 -22 42 -18 15 5 l-24 20 28
-10 c46 -16 30 -3 -30 26 -59 27 -180 44 -197 27z m214 -318 c-7 -9 -15 -13
-19 -10 -3 3 1 10 9 15 21 14 24 12 10 -5z"/>
<path d="M4071 3911 c1 -45 1 -46 8 -11 4 20 10 40 14 46 3 6 0 11 -8 11 -11
0 -15 -12 -14 -46z"/>
<path d="M2821 3946 c2 -2 15 -9 29 -15 24 -11 24 -11 6 3 -16 13 -49 24 -35
12z"/>
<path d="M4139 3943 c0 -5 -2 -17 -4 -27 -5 -26 5 -42 16 -25 12 19 11 59 -1
59 -5 0 -10 -3 -11 -7z"/>
<path d="M2020 3880 c0 -5 5 -10 10 -10 6 0 10 5 10 10 0 6 -4 10 -10 10 -5 0
-10 -4 -10 -10z"/>
<path d="M2270 3870 c0 -13 18 -22 24 -11 3 5 -1 11 -9 15 -8 3 -15 1 -15 -4z"/>
<path d="M4970 3856 c0 -8 -4 -16 -8 -18 -16 -6 -82 -99 -82 -115 0 -14 3 -13
21 3 38 34 98 144 79 144 -6 0 -10 -6 -10 -14z"/>
<path d="M2305 3840 c3 -5 8 -10 11 -10 2 0 4 5 4 10 0 6 -5 10 -11 10 -5 0
-7 -4 -4 -10z"/>
<path d="M2550 3524 c0 -10 21 -41 45 -68 25 -27 45 -53 45 -58 0 -4 7 -8 15
-8 9 0 18 -8 21 -17 18 -53 31 -73 46 -73 10 0 18 -7 18 -15 0 -9 11 -21 25
-27 28 -12 48 -2 25 12 -8 6 -11 10 -7 10 5 0 1 7 -7 16 -9 8 -16 21 -16 29 0
7 -6 25 -14 39 -17 34 -10 67 12 59 11 -3 10 1 -5 14 -13 10 -22 28 -21 41 2
25 10 27 39 12 11 -6 19 -7 19 -1 0 17 -83 42 -161 48 -73 6 -79 5 -79 -13z"/>
<path d="M2350 3449 c13 -24 76 -61 97 -57 53 10 -10 72 -74 74 -28 1 -31 -1
-23 -17z m90 -19 c0 -5 -7 -10 -15 -10 -8 0 -15 5 -15 10 0 6 7 10 15 10 8 0
15 -4 15 -10z"/>
<path d="M2930 3444 c0 -8 5 -12 10 -9 6 4 8 11 5 16 -9 14 -15 11 -15 -7z"/>
<path d="M3050 3318 c0 -7 8 -22 17 -33 14 -18 15 -18 9 -2 -3 10 -6 25 -6 33
0 8 -4 14 -10 14 -5 0 -10 -6 -10 -12z"/>
<path d="M2640 2971 c0 -10 7 -24 15 -31 8 -7 15 -21 15 -32 0 -10 8 -22 17
-25 20 -8 63 -52 63 -64 0 -5 5 -9 10 -9 15 0 12 16 -5 34 -8 8 -15 19 -15 24
0 5 -7 24 -16 42 -30 58 -84 98 -84 61z"/>
<path d="M5080 2974 c0 -8 5 -12 10 -9 6 3 10 10 10 16 0 5 -4 9 -10 9 -5 0
-10 -7 -10 -16z"/>
<path d="M2601 2784 c-19 -13 -41 -24 -50 -24 -17 0 -41 -18 -41 -31 0 -4 14
-12 31 -18 32 -11 69 -1 69 20 0 6 4 8 9 5 22 -14 41 7 38 40 -2 40 -10 41
-56 8z"/>
<path d="M2483 2682 c-13 -2 -23 -12 -25 -25 -2 -15 -11 -23 -30 -25 -32 -4
-46 -32 -24 -48 9 -6 16 -21 16 -32 0 -11 5 -24 10 -27 6 -3 10 -17 10 -31 0
-13 5 -24 10 -24 6 0 10 -8 10 -17 0 -14 5 -12 26 10 20 22 23 31 14 42 -6 8
-9 23 -5 35 4 12 1 27 -5 35 -10 12 -9 15 8 15 19 0 20 5 16 47 -5 53 -2 50
-31 45z"/>
<path d="M2526 2550 c7 -27 43 -62 56 -54 4 3 8 12 8 20 0 11 -6 13 -20 9 -11
-3 -20 -2 -20 2 0 5 -7 18 -16 29 -14 18 -15 18 -8 -6z"/>
<path d="M2596 2509 c-7 -37 -1 -49 25 -49 14 0 19 7 19 28 0 26 -15 52 -31
52 -3 0 -9 -14 -13 -31z"/>
<path d="M2550 2450 c0 -5 7 -10 15 -10 8 0 15 5 15 10 0 6 -7 10 -15 10 -8 0
-15 -4 -15 -10z"/>
<path d="M3980 2270 c0 -5 5 -10 10 -10 6 0 10 5 10 10 0 6 -4 10 -10 10 -5 0
-10 -4 -10 -10z"/>
<path d="M2910 1960 c0 -7 -8 -9 -20 -5 -14 4 -20 2 -20 -8 0 -11 8 -13 30 -8
31 6 42 22 21 29 -6 2 -11 -2 -11 -8z"/>
<path d="M3701 5001 c-7 -5 -12 -14 -10 -20 2 -6 10 -2 17 9 14 22 13 23 -7
11z"/>
<path d="M4386 4613 c-4 -9 -2 -21 4 -27 7 -7 10 -2 10 17 0 31 -5 34 -14 10z"/>
<path d="M4361 4604 c0 -11 3 -14 6 -6 3 7 2 16 -1 19 -3 4 -6 -2 -5 -13z"/>
<path d="M4455 4577 c-4 -10 -5 -21 -1 -24 10 -10 18 4 13 24 -4 17 -4 17 -12
0z"/>
<path d="M1576 6075 c4 -8 8 -15 10 -15 2 0 4 7 4 15 0 8 -4 15 -10 15 -5 0
-7 -7 -4 -15z"/>
<path d="M2595 400 c-8 -13 4 -32 16 -25 12 8 12 35 0 35 -6 0 -13 -4 -16 -10z"/>
<path d="M2565 360 c-3 -5 -4 -10 -1 -10 3 0 -2 -16 -10 -35 -10 -25 -12 -41
-5 -53 9 -14 11 -14 12 -2 1 8 1 19 0 23 -1 5 8 16 19 25 14 12 18 24 14 40
-7 23 -19 29 -29 12z"/>
</g>
</svg>
