<?xml version="1.0" encoding="UTF-8" standalone="no"?>
<!-- Created with Inkscape (http://www.inkscape.org/) -->

<svg
   width="38.959595mm"
   height="39.085632mm"
   viewBox="0 0 38.959595 39.085632"
   version="1.1"
   id="svg181"
   xmlns="http://www.w3.org/2000/svg"
   xmlns:svg="http://www.w3.org/2000/svg">
  <defs
     id="defs178" />
  <g
     id="layer1"
     transform="translate(-104.84105,-100.71579)">
    <path
       style="fill:#000000;stroke-width:0.145468"
       d="m 109.9331,139.69206 c 0,-0.2405 0.56958,-3.07661 0.79605,-3.96372 0.13254,-0.52003 0.59713,-2.04498 1.03191,-3.38873 0.4346,-1.34375 0.79046,-2.46542 0.79046,-2.49259 0,-0.0271 -0.53235,-0.12729 -1.18261,-0.22232 -0.65042,-0.0951 -2.07314,-0.39723 -3.16154,-0.67135 -1.08845,-0.27412 -2.10401,-0.49839 -2.25687,-0.49839 -0.26618,0 -0.27336,-0.0963 -0.17561,-2.23694 l 0.10216,-2.23695 -0.51799,-0.0972 c -0.28496,-0.0536 -0.518,-0.1353 -0.518,-0.18196 0,-0.0464 0.18721,-0.42009 0.41528,-0.82985 1.76588,-3.16719 1.83132,-3.32077 1.83612,-4.309 0.003,-0.73379 0.0955,-1.13099 0.41032,-1.77358 0.2231,-0.45542 0.70067,-1.15582 1.06084,-1.55644 1.42692,-1.58707 3.1648,-2.53135 5.506,-2.99171 1.46728,-0.28848 1.5996,-0.34205 1.69105,-0.68409 0.0552,-0.20411 0.27115,-0.71322 0.48099,-1.13136 0.42633,-0.84909 0.5064,-1.60918 0.16899,-1.60918 -0.11707,0 -0.56853,-0.13309 -1.00336,-0.29577 -0.95713,-0.35813 -2.03371,-1.27326 -2.44402,-2.07758 -0.24795,-0.48575 -0.28992,-0.77705 -0.2347,-1.6188 0.0497,-0.76674 0.18169,-1.25117 0.518,-1.91442 0.26893,-0.52992 0.75518,-1.16206 1.20646,-1.56781 0.41584,-0.37392 0.78125,-0.65485 0.81184,-0.62425 0.0331,0.0304 -0.10879,0.40882 -0.3098,0.84047 -0.26342,0.56611 -0.36558,1.03215 -0.36668,1.67219 -0.001,0.75162 0.0635,0.97734 0.42466,1.47561 0.44842,0.61868 0.97354,1.05554 1.26931,1.05554 0.0966,0 0.21759,-0.13115 0.26839,-0.29146 0.14248,-0.44825 1.40759,-1.67811 2.07883,-2.02056 0.33024,-0.16854 0.739,-0.30638 0.90826,-0.30638 0.2601,0 0.30042,-0.0735 0.26066,-0.47277 -0.0442,-0.46084 -0.0331,-0.47276 0.52131,-0.47276 0.52296,0 0.5815,0.0409 0.72729,0.50916 0.10106,0.32399 0.26452,0.52716 0.44952,0.55863 0.82697,0.14071 1.78189,0.97653 2.47787,2.16889 0.15187,0.26005 0.35785,0.47277 0.45781,0.47277 0.35343,0 1.19453,-0.89483 1.43647,-1.52827 0.18224,-0.47718 0.21924,-0.84807 0.14468,-1.44531 -0.0552,-0.4419 -0.25734,-1.09915 -0.44951,-1.4606 -0.19218,-0.36144 -0.30208,-0.65677 -0.24464,-0.65624 0.24795,0.002 0.97336,0.5962 1.48694,1.21769 0.6259,0.75738 1.16533,2.18185 1.16052,3.06454 -0.002,0.32449 -0.1248,0.85845 -0.27391,1.18657 -0.49038,1.08019 -1.31823,1.71728 -3.26806,2.51539 -0.39209,0.16059 -0.41197,0.20847 -0.32361,0.78429 0.0497,0.3373 0.25126,1.16966 0.44289,1.84972 0.19162,0.68006 0.38988,1.54358 0.44013,1.91892 0.0817,0.61049 0.16015,0.72553 0.73928,1.09102 0.6973,0.43991 1.34783,1.24425 1.71275,2.11781 0.12536,0.30003 0.32637,0.5455 0.44621,0.5455 0.11983,0 0.50916,-0.19638 0.86496,-0.43638 0.66589,-0.44941 1.36524,-0.56294 1.65886,-0.26932 0.12591,0.12579 0.30373,0.048 0.72006,-0.31389 1.14169,-0.99307 3.09864,-2.89836 3.09864,-3.01685 0,-0.0677 -0.26562,-0.38182 -0.59072,-0.6981 -0.68721,-0.66888 -1.73673,-1.99452 -1.73673,-2.19362 0,-0.0754 0.1839,-0.24552 0.4081,-0.37811 0.22421,-0.13259 1.25032,-1.04299 2.27957,-2.02309 l 1.87147,-1.78199 1.65063,1.70977 c 1.31984,1.3672 1.70856,1.69138 1.94,1.61792 0.20433,-0.0648 0.41362,0.032 0.70968,0.32836 0.32526,0.3251 0.40257,0.5117 0.34293,0.82426 -0.0679,0.35619 0.0873,0.57044 1.31173,1.80831 l 1.38903,1.40426 -2.35865,2.44159 -2.35865,2.44157 -1.72661,-1.95987 -1.72667,-1.95988 -0.3562,0.28037 c -0.19604,0.15418 -0.97044,0.86168 -1.72087,1.57218 -1.41041,1.33542 -1.63163,1.75849 -1.0752,2.05631 0.15904,0.0852 0.333,0.32847 0.38601,0.54075 0.0812,0.32421 0.0111,0.45818 -0.44068,0.83726 l -0.53732,0.45129 0.28661,1.23146 c 0.15793,0.6773 0.39816,2.06455 0.53456,3.08276 l 0.24795,1.8513 -0.98403,1.97546 c -0.77467,1.55514 -1.03416,1.95673 -1.21949,1.88743 -0.12923,-0.0486 -0.71841,-0.36303 -1.30863,-0.6992 -0.59835,-0.34073 -1.38258,-0.94968 -1.77251,-1.37626 -0.38491,-0.4208 -0.73006,-0.71538 -0.76755,-0.65461 -0.0387,0.0608 -0.13972,0.50325 -0.22697,0.9833 -0.0872,0.48006 -0.33134,1.37293 -0.54285,1.98419 l -0.38435,1.11137 0.36558,0.48879 c 0.20101,0.26882 0.59978,1.08627 0.88578,1.81657 0.60757,1.55161 1.40605,4.52381 1.40605,5.23396 v 0.49336 h -9.23723 c -5.08045,0 -9.23723,-0.0491 -9.23723,-0.10945 z m 5.09763,-5.35317 c 0.15904,-0.19174 0.10713,-0.2918 -0.3457,-0.66519 -0.29324,-0.24171 -0.53346,-0.56195 -0.53346,-0.71159 0,-0.14966 0.14303,-0.37226 0.31808,-0.49469 0.47824,-0.33504 2.88245,-2.72961 2.88245,-2.871 0,-0.0678 -0.13696,-0.12321 -0.30484,-0.12321 -0.18665,0 -1.01699,0.65712 -2.14565,1.69844 -1.01246,0.93414 -1.85992,1.71144 -1.88323,1.72735 -0.0221,0.016 0.29434,0.39717 0.70559,0.84726 0.41142,0.45007 0.8315,0.81834 0.93372,0.81834 0.10216,0 0.27004,-0.10155 0.37331,-0.22569 z m 1.97826,-2.01934 c 1.48088,-1.49164 1.85883,-2.02507 1.17941,-1.66464 -0.46332,0.24575 -3.01846,2.78866 -3.01846,3.00387 0,0.0982 0.0746,0.17849 0.16623,0.17849 0.0917,0 0.8442,-0.68298 1.67288,-1.51771 z m 2.76648,-2.15535 c 0.0624,-0.1 0.095,-0.32345 0.0723,-0.49646 -0.0387,-0.29009 0.006,-0.30821 0.57416,-0.23216 0.5318,0.0713 0.60166,0.0497 0.518,-0.15816 -0.31312,-0.77767 -0.31367,-0.76893 0.0221,-0.47509 0.25624,0.22515 0.35288,0.2416 0.53402,0.0913 0.26838,-0.22255 0.28495,-0.59858 0.0386,-0.87848 -0.0999,-0.11399 -0.0442,-0.0937 0.12205,0.0447 0.28826,0.23922 0.31587,0.23873 0.54008,-0.0105 0.22034,-0.24315 0.20819,-0.30445 -0.1723,-0.87891 -0.22476,-0.33962 -0.83829,-0.97175 -1.36313,-1.40469 -0.89793,-0.74063 -0.98353,-0.7791 -1.44796,-0.65087 -0.2717,0.0749 -0.83934,0.4314 -1.26191,0.7921 -0.42246,0.36066 -0.8775,0.65439 -1.01098,0.65267 -0.13364,-0.002 -0.70089,-0.30064 -1.26097,-0.66421 -0.56002,-0.36359 -1.56426,-0.93227 -2.23158,-1.26368 -0.94012,-0.46692 -1.42167,-0.61585 -2.13902,-0.66152 -0.50916,-0.0326 -1.12513,0.0105 -1.36877,0.0955 -0.24354,0.0849 -0.44289,0.10376 -0.44289,0.042 0,-0.22454 0.69206,-0.75532 1.15963,-0.88941 0.27778,-0.0796 0.84222,-0.0877 1.34392,-0.0188 0.78931,0.10796 0.88164,0.0916 1.05532,-0.18649 0.30428,-0.4873 0.69444,-1.82279 0.60249,-2.06239 -0.0442,-0.12066 -0.33024,-0.32223 -0.63126,-0.44792 -0.71945,-0.30063 -1.89411,-0.19278 -3.06899,0.28181 l -0.89931,0.3632 -0.46001,-0.58051 -0.46002,-0.58054 -0.26672,0.3425 c -0.44124,0.56649 -0.96608,1.75682 -1.07117,2.43081 l -0.0988,0.63363 0.59724,-0.10095 0.59724,-0.10095 v 1.54019 c 0,0.84712 0.0387,1.5402 0.0867,1.5402 0.0497,0 0.2717,-0.10929 0.49812,-0.24304 0.39484,-0.23326 0.44565,-0.22774 1.25892,0.1369 0.82366,0.36922 3.34307,1.20092 4.73613,1.56349 0.37884,0.0985 0.65716,0.22951 0.61911,0.29108 -0.11873,0.19223 -1.24617,0.24414 -2.83489,0.13049 -1.19018,-0.0852 -1.84325,-0.22238 -2.95794,-0.62169 -0.78676,-0.28186 -1.59783,-0.62207 -1.80227,-0.75604 -0.36668,-0.24011 -0.37055,-0.26353 -0.29213,-1.64524 0.0497,-0.8552 0.0331,-1.17481 -0.0331,-0.81978 -0.063,0.32002 -0.14414,1.11475 -0.18003,1.76605 l -0.0652,1.18419 1.90245,0.52324 c 1.04638,0.28777 2.25511,0.58952 2.68607,0.67054 1.04974,0.19731 5.14942,0.193 5.34806,-0.006 0.10713,-0.10697 0.22697,-0.0398 0.39982,0.22354 0.28495,0.43472 1.91697,1.675 2.20419,1.675 0.10658,0 0.24464,-0.0818 0.30704,-0.18185 z m 11.42993,-2.70486 c 0.52517,-1.01211 0.6904,-1.48618 0.68118,-1.9525 l -0.0111,-0.61586 -0.17782,0.80008 c -0.2115,0.95147 -0.78997,2.12323 -0.96,1.94475 -0.0663,-0.0695 -0.0552,-0.51915 0.0221,-0.99922 0.1364,-0.81928 0.0977,-4.36116 -0.0497,-4.50802 -0.0828,-0.083 -1.81691,0.26226 -1.94105,0.3864 -0.13198,0.13209 -0.50806,2.56567 -0.50861,3.29242 -2.7e-4,0.34398 0.10603,0.83115 0.23581,1.08257 0.3109,0.60143 1.66134,2.02343 1.85887,1.95758 0.085,-0.0282 0.46664,-0.65303 0.84807,-1.38819 z m -5.23447,-4.0136 c 1.68465,-1.56069 2.13257,-2.11873 1.70077,-2.11873 -0.0845,0 -1.32878,1.08937 -2.76465,2.42081 -2.12781,1.97311 -2.57915,2.45874 -2.44032,2.62601 0.14137,0.17036 0.296,0.0852 0.90992,-0.50231 0.40699,-0.38911 1.57419,-1.48075 2.59428,-2.4258 z m -2.54757,0.17291 c 2.83391,-2.72757 3.38404,-3.28918 3.38404,-3.45488 0,-0.43052 -0.67875,0.0555 -2.66795,1.91056 -2.20844,2.05953 -3.28376,3.15778 -3.29187,3.36217 -0.002,0.06 0.12591,0.10912 0.2844,0.10912 0.17285,0 1.09226,-0.77307 2.29116,-1.92696 z m -8.23066,-0.8236 c 0.46387,-0.3647 1.08608,-1.53665 1.2053,-2.26943 0.0652,-0.39861 0.006,-0.8689 -0.1861,-1.48585 -0.36558,-1.17402 -0.88556,-2.04707 -1.60927,-2.70089 -1.29559,-1.17051 -2.58854,-1.45067 -3.85824,-0.83602 -0.76313,0.36944 -1.32232,0.97883 -1.72054,1.87506 -0.34018,0.7656 -0.25679,1.42208 0.29158,2.29389 0.36558,0.58128 0.39319,0.59541 0.89738,0.46415 1.63655,-0.42593 3.28883,-1.06781 3.71748,-1.44419 l 0.47823,-0.42003 0.21096,0.32753 c 0.61165,0.94945 0.72817,2.54692 0.27335,3.74448 -0.15241,0.40087 -0.22641,0.7289 -0.16512,0.7289 0.0613,0 0.2706,-0.12492 0.46499,-0.2776 z m 14.16039,-1.66516 c 0,-0.41765 0.0497,-0.51391 0.21814,-0.44305 0.39926,0.16572 0.61275,0.13353 0.77506,-0.11702 0.12811,-0.19781 0.0906,-0.32301 -0.18721,-0.61825 -0.3954,-0.4208 -0.3076,-0.47895 0.21095,-0.13938 0.39761,0.2606 0.65589,0.17202 0.65589,-0.22509 0,-0.16843 0.16567,-0.32593 0.44621,-0.42362 0.32361,-0.11266 0.41362,-0.21162 0.32747,-0.35962 -0.0652,-0.11238 -0.49149,-0.60513 -0.94747,-1.09522 -0.45559,-0.49011 -0.93736,-0.89106 -1.07006,-0.89106 -0.13254,0 -0.37386,0.16854 -0.53567,0.37452 -0.1618,0.20599 -0.45614,0.43599 -0.65396,0.51115 -0.1977,0.0751 -0.32913,0.21753 -0.29158,0.31643 0.24685,0.65697 0.26232,0.83442 0.0735,0.83442 -0.10934,0 -0.26673,-0.0677 -0.34901,-0.15021 -0.0828,-0.0827 -0.25071,-0.11177 -0.37276,-0.0647 -0.27391,0.1052 -0.61789,0.79683 -0.39595,0.79683 0.0828,0 0.10879,0.0683 0.0569,0.15176 -0.17672,0.28572 1.5636,2.23713 1.89499,2.12504 0.0801,-0.0271 0.14524,-0.28932 0.14524,-0.58284 z m -8.6222,-3.59811 c -0.0928,-1.248 0.10492,-3.66115 0.26728,-3.25995 0.0646,0.16004 0.22476,1.07647 0.35564,2.03655 0.22366,1.64121 0.37828,2.14136 0.59481,1.92492 0.0497,-0.0508 0.0111,-1.08259 -0.0828,-2.293 -0.0966,-1.2104 -0.14138,-2.23434 -0.10051,-2.27542 0.14689,-0.14662 0.54119,0.83859 0.83879,2.09439 0.16622,0.70205 0.33686,1.30919 0.37828,1.34918 0.14137,0.13546 -0.0707,-2.68712 -0.24464,-3.25524 -0.19052,-0.62265 -0.73856,-1.25426 -1.08779,-1.25426 -0.1237,0 -0.22476,0.1052 -0.22476,0.23376 0,0.16645 -0.0735,0.20295 -0.25458,0.12674 -0.53567,-0.22526 -0.91964,-0.24204 -1.15185,-0.0503 -0.4208,0.34747 -0.74961,1.32539 -0.8537,2.53968 -0.0768,0.89476 -0.0497,1.27196 0.10658,1.57307 0.20046,0.3827 0.21316,0.35277 0.37994,-0.88604 0.095,-0.70518 0.25458,-1.54398 0.35453,-1.86401 0.16622,-0.53103 0.18887,-0.36585 0.26066,1.89108 0.0442,1.36014 0.13806,2.60388 0.2115,2.76389 0.12646,0.27634 0.13806,0.27269 0.22863,-0.0728 0.0497,-0.20002 0.063,-0.79504 0.0221,-1.32228 z m 4.4758,0.52413 c 0.2347,-0.83749 0.12481,-2.48595 -0.20322,-3.06046 l -0.2474,-0.43268 0.0862,0.77428 c 0.0497,0.42583 0.011,1.29221 -0.0817,1.92524 -0.16512,1.12971 -0.11652,1.68698 0.13474,1.53202 0.0696,-0.0431 0.20985,-0.3753 0.31146,-0.73838 z m -6.383,-4.2504 c 0.0922,-0.5765 0.28882,-1.24801 0.43737,-1.49226 0.14855,-0.24425 0.55307,-0.58157 0.89893,-0.7496 l 0.62888,-0.30556 0.91467,0.46173 c 0.50309,0.25397 0.95128,0.42511 0.99601,0.38038 0.11707,-0.11724 -0.407,-0.66017 -0.8669,-0.89812 -0.21647,-0.11183 -0.60917,-0.20024 -0.87319,-0.19654 -0.26397,0.004 -0.83829,0.15435 -1.27621,0.33477 -1.13954,0.46934 -1.34884,0.8898 -1.43057,2.87371 -0.0331,0.86379 -0.0166,1.68838 0.0497,1.83243 0.11708,0.27098 0.13199,0.20675 0.52297,-2.24094 z m -1.2084,-0.0622 c 0.1977,-1.28351 0.80428,-2.54688 1.38948,-2.89332 0.70912,-0.41987 0.82018,-0.55804 0.82018,-1.02062 v -0.43069 h -1.01827 c -0.71078,0 -1.02218,0.0547 -1.03124,0.18185 -0.006,0.10001 -0.005,0.47641 0.005,0.83644 0.011,0.36006 -0.0817,1.11283 -0.20267,1.67289 -0.19549,0.90503 -0.31698,2.83632 -0.16788,2.67903 0.0331,-0.0331 0.12425,-0.49486 0.20598,-1.02558 z m 6.10032,-0.67155 c -0.0839,-1.38418 -0.31643,-2.21385 -0.55417,-1.97636 -0.0944,0.0942 -0.0955,0.39148 -0.003,0.86014 0.0773,0.39391 0.18169,1.09259 0.23249,1.55263 0.0497,0.46006 0.16181,0.83644 0.24685,0.83644 0.10382,0 0.12978,-0.41987 0.0779,-1.27285 z m -6.59865,-1.85146 c 0.20156,-0.55597 0.34349,-1.03414 0.31532,-1.0626 -0.0497,-0.0503 -0.51137,1.11814 -0.73425,1.85942 -0.21592,0.71713 0.0591,0.19439 0.41915,-0.79682 z m 5.90824,-1.167 v -0.65461 h -0.80002 -0.80008 v 0.50193 c 0,0.59227 0.26839,0.7965 1.05461,0.80288 l 0.5456,0.004 z m -2.24533,0.001 c 0.11818,-0.63053 10e-4,-0.96959 -0.29489,-0.85588 -0.15407,0.0592 -0.22366,0.28407 -0.22366,0.72489 0,0.46222 0.0585,0.63904 0.21151,0.63904 0.12646,0 0.25016,-0.20416 0.30704,-0.50805 z m 2.53631,-1.4485 c 0,-0.26043 -0.80649,-0.36773 -2.76388,-0.36773 -1.79029,0 -2.76394,0.10608 -2.76394,0.30107 0,0.11879 1.09172,0.18086 4.03678,0.22946 1.13219,0.0188 1.49104,-0.0204 1.49104,-0.1628 z m -3.58732,-1.099 c 0.11984,-0.11989 0.28771,-2.86931 0.19107,-3.1217 -0.0795,-0.20748 -0.14965,-0.20129 -0.65821,0.0581 -0.78489,0.40042 -1.5542,1.34547 -1.75975,2.16167 -0.0944,0.3743 -0.24574,0.77025 -0.33686,0.87991 -0.13861,0.167 0.0497,0.19097 1.16257,0.1474 0.73044,-0.0287 1.36103,-0.085 1.40135,-0.12547 z m 3.49327,-0.76298 c -0.56168,-1.45443 -0.80996,-1.86543 -1.34767,-2.23081 -0.27778,-0.18892 -0.52463,-0.3246 -0.54782,-0.30141 -0.0221,0.0232 0.0221,0.26695 0.10216,0.54163 0.0795,0.27474 0.18611,1.03955 0.23746,1.69962 l 0.0928,1.20011 h 0.90716 0.90721 z m 0.62982,0.59096 c -0.0442,-0.11602 -0.0812,-0.0816 -0.0878,0.0879 -0.006,0.15336 0.0276,0.23928 0.0762,0.19091 0.0497,-0.0486 0.0552,-0.17379 0.011,-0.27882 z"
       id="path603" />
  </g>
</svg>
