<?xml version="1.0" encoding="UTF-8" standalone="no"?>
<!-- Created with Inkscape (http://www.inkscape.org/) -->

<svg
   width="101.11452mm"
   height="39.085629mm"
   viewBox="0 0 101.11452 39.085629"
   version="1.1"
   id="svg738"
   inkscape:version="1.2.2 (b0a8486541, 2022-12-01)"
   sodipodi:docname="logo4_with_text.svg"
   inkscape:export-filename="logo4.png"
   inkscape:export-xdpi="96"
   inkscape:export-ydpi="96"
   xmlns:inkscape="http://www.inkscape.org/namespaces/inkscape"
   xmlns:sodipodi="http://sodipodi.sourceforge.net/DTD/sodipodi-0.dtd"
   xmlns="http://www.w3.org/2000/svg"
   xmlns:svg="http://www.w3.org/2000/svg">
  <sodipodi:namedview
     id="namedview740"
     pagecolor="#ffffff"
     bordercolor="#000000"
     borderopacity="0.25"
     inkscape:showpageshadow="2"
     inkscape:pageopacity="0.0"
     inkscape:pagecheckerboard="0"
     inkscape:deskcolor="#d1d1d1"
     inkscape:document-units="mm"
     showgrid="false"
     inkscape:zoom="0.914906"
     inkscape:cx="397.30857"
     inkscape:cy="562.35285"
     inkscape:window-width="3834"
     inkscape:window-height="2122"
     inkscape:window-x="0"
     inkscape:window-y="0"
     inkscape:window-maximized="1"
     inkscape:current-layer="layer1" />
  <defs
     id="defs735" />
  <g
     inkscape:label="Calque 1"
     inkscape:groupmode="layer"
     id="layer1"
     transform="translate(-52.587819,-23.451999)">
    <path
       style="fill:#000000;stroke-width:0.145468"
       d="m 57.679858,62.428259 c 0,-0.240499 0.56958,-3.076609 0.79605,-3.963713 0.13254,-0.520039 0.59713,-2.044985 1.03191,-3.388732 0.4346,-1.343752 0.79046,-2.465423 0.79046,-2.492588 0,-0.02706 -0.53235,-0.12729 -1.18261,-0.222329 -0.65042,-0.0951 -2.07314,-0.397223 -3.16154,-0.671341 -1.08845,-0.274129 -2.10401,-0.498391 -2.25687,-0.498391 -0.26618,0 -0.27336,-0.09631 -0.17561,-2.236948 l 0.10216,-2.236947 -0.51799,-0.09719 c -0.28496,-0.05357 -0.518,-0.135298 -0.518,-0.181961 0,-0.04639 0.18721,-0.420085 0.41528,-0.829843 1.76588,-3.167198 1.83132,-3.320774 1.83612,-4.309003 0.003,-0.733787 0.0955,-1.130993 0.41032,-1.773579 0.2231,-0.455427 0.70067,-1.155821 1.06084,-1.556445 1.42692,-1.587067 3.1648,-2.531349 5.506,-2.991703 1.46728,-0.288487 1.5996,-0.342054 1.69105,-0.684097 0.0552,-0.204105 0.27115,-0.713216 0.48099,-1.131362 0.42633,-0.849089 0.5064,-1.609173 0.16899,-1.609173 -0.11707,0 -0.56853,-0.133089 -1.00336,-0.295777 -0.95713,-0.358124 -2.03371,-1.273259 -2.44402,-2.077578 -0.24795,-0.485745 -0.28992,-0.777043 -0.2347,-1.618798 0.0497,-0.766739 0.18169,-1.25117 0.518,-1.91442 0.26893,-0.529924 0.75518,-1.162056 1.20646,-1.56781 0.41584,-0.373918 0.78125,-0.654846 0.81184,-0.624252 0.0331,0.03037 -0.10879,0.408819 -0.3098,0.840473 -0.26342,0.566107 -0.36558,1.032154 -0.36668,1.672194 -10e-4,0.751613 0.0635,0.977334 0.42466,1.475604 0.44842,0.618685 0.97354,1.055546 1.26931,1.055546 0.0966,0 0.21759,-0.131155 0.26839,-0.291469 0.14248,-0.448249 1.40759,-1.678108 2.07883,-2.020554 0.33024,-0.168542 0.739,-0.30638 0.90826,-0.30638 0.2601,0 0.30042,-0.0735 0.26066,-0.472768 -0.0442,-0.46084 -0.0331,-0.472768 0.52131,-0.472768 0.52296,0 0.5815,0.04087 0.72729,0.50916 0.10106,0.323996 0.26452,0.527163 0.44952,0.558635 0.82697,0.14071 1.78189,0.976527 2.47787,2.16889 0.15187,0.260047 0.35785,0.472768 0.45781,0.472768 0.35343,0 1.19453,-0.894824 1.43647,-1.528265 0.18224,-0.477186 0.21924,-0.848072 0.14468,-1.445313 -0.0552,-0.441898 -0.25734,-1.099146 -0.44951,-1.460605 -0.19218,-0.361438 -0.30208,-0.656762 -0.24464,-0.656232 0.24795,0.0023 0.97336,0.596193 1.48694,1.217683 0.6259,0.757384 1.16533,2.181856 1.16052,3.064542 -0.002,0.324493 -0.1248,0.858454 -0.27391,1.18657 -0.49038,1.080193 -1.31823,1.717284 -3.26806,2.515395 -0.39209,0.16059 -0.41197,0.208469 -0.32361,0.784284 0.0497,0.337304 0.25126,1.16966 0.44289,1.849726 0.19162,0.68006 0.38988,1.543578 0.44013,1.91892 0.0817,0.610485 0.16015,0.725526 0.73928,1.091012 0.6973,0.43991 1.34783,1.244256 1.71275,2.117813 0.12536,0.300029 0.32637,0.545498 0.44621,0.545498 0.11983,0 0.50916,-0.196375 0.86496,-0.436376 0.66589,-0.449409 1.36524,-0.562943 1.65886,-0.269325 0.12591,0.125799 0.30373,0.04804 0.72006,-0.31389 1.14169,-0.993067 3.09864,-2.898359 3.09864,-3.016846 0,-0.0677 -0.26562,-0.381815 -0.59072,-0.698102 -0.68721,-0.668877 -1.73673,-1.994516 -1.73673,-2.193613 0,-0.07538 0.1839,-0.245524 0.4081,-0.378115 0.22421,-0.132592 1.25032,-1.042989 2.27957,-2.023089 l 1.87147,-1.781995 1.65063,1.709779 c 1.31984,1.367195 1.70856,1.691373 1.94,1.617915 0.20433,-0.06478 0.41362,0.03203 0.70968,0.328358 0.32526,0.325101 0.40257,0.511701 0.34293,0.82426 -0.0679,0.356191 0.0873,0.570442 1.31173,1.808308 l 1.38903,1.404266 -2.35865,2.441584 -2.35865,2.441578 -1.72661,-1.959875 -1.72667,-1.95988 -0.3562,0.280369 c -0.19604,0.154184 -0.97044,0.861685 -1.72087,1.572184 -1.41041,1.335419 -1.63163,1.758486 -1.0752,2.056306 0.15904,0.08521 0.333,0.328469 0.38601,0.540748 0.0812,0.324217 0.0111,0.458189 -0.44068,0.837265 l -0.53732,0.451286 0.28661,1.231461 c 0.15793,0.677304 0.39816,2.06455 0.53456,3.08276 l 0.24795,1.8513 -0.98403,1.975464 c -0.77467,1.555143 -1.03416,1.956733 -1.21949,1.887433 -0.12923,-0.0486 -0.71841,-0.363039 -1.30863,-0.699206 -0.59835,-0.340729 -1.38258,-0.949683 -1.77251,-1.376257 -0.38491,-0.420803 -0.73006,-0.715381 -0.76755,-0.654613 -0.0387,0.0608 -0.13972,0.503251 -0.22697,0.983303 -0.0872,0.480058 -0.33134,1.372927 -0.54285,1.98419 l -0.38435,1.111372 0.36558,0.488782 c 0.20101,0.268828 0.59978,1.086273 0.88578,1.81657 0.60757,1.551619 1.40605,4.523817 1.40605,5.233968 v 0.493361 h -9.23723 c -5.08045,0 -9.23723,-0.04915 -9.23723,-0.109453 z m 5.09763,-5.353168 c 0.15904,-0.191736 0.10713,-0.291801 -0.3457,-0.665189 -0.29324,-0.241713 -0.53346,-0.561948 -0.53346,-0.711593 0,-0.149655 0.14303,-0.372261 0.31808,-0.494691 0.47824,-0.335041 2.88245,-2.729607 2.88245,-2.871001 0,-0.06782 -0.13696,-0.123204 -0.30484,-0.123204 -0.18665,0 -1.01699,0.657115 -2.14565,1.698436 -1.01246,0.934138 -1.85992,1.711441 -1.88323,1.727351 -0.0221,0.01601 0.29434,0.397167 0.70559,0.84726 0.41142,0.450071 0.8315,0.818345 0.93372,0.818345 0.10216,0 0.27004,-0.101555 0.37331,-0.225698 z m 1.97826,-2.01934 c 1.48088,-1.49164 1.85883,-2.025071 1.17941,-1.664639 -0.46332,0.245745 -3.01846,2.788663 -3.01846,3.003874 0,0.09819 0.0746,0.178482 0.16623,0.178482 0.0917,0 0.8442,-0.682976 1.67288,-1.517711 z m 2.76648,-2.155354 c 0.0624,-0.09996 0.095,-0.323444 0.0723,-0.496459 -0.0387,-0.290089 0.006,-0.308202 0.57416,-0.232159 0.5318,0.07129 0.60166,0.0497 0.518,-0.15816 -0.31312,-0.777668 -0.31367,-0.768932 0.0221,-0.475088 0.25624,0.225146 0.35288,0.241603 0.53402,0.09134 0.26838,-0.222551 0.28495,-0.598578 0.0386,-0.878484 -0.0999,-0.113981 -0.0442,-0.09366 0.12205,0.04473 0.28826,0.239228 0.31587,0.238731 0.54008,-0.01049 0.22034,-0.243149 0.20819,-0.304447 -0.1723,-0.878904 -0.22476,-0.339624 -0.83829,-0.97175 -1.36313,-1.404696 -0.89793,-0.740624 -0.98353,-0.779098 -1.44796,-0.650869 -0.2717,0.07494 -0.83934,0.431405 -1.26191,0.792103 -0.42246,0.360664 -0.8775,0.654392 -1.01098,0.652669 -0.13364,-0.0015 -0.70089,-0.300636 -1.26097,-0.664211 -0.56002,-0.363591 -1.56426,-0.932271 -2.23158,-1.263678 -0.94012,-0.466915 -1.42167,-0.615852 -2.13902,-0.661522 -0.50916,-0.03258 -1.12513,0.01049 -1.36877,0.09554 -0.24354,0.08488 -0.44289,0.103764 -0.44289,0.04197 0,-0.224538 0.69206,-0.755313 1.15963,-0.889412 0.27778,-0.07963 0.84222,-0.0877 1.34392,-0.01878 0.78931,0.107962 0.88164,0.09162 1.05532,-0.186489 0.30428,-0.487292 0.69444,-1.822788 0.60249,-2.062386 -0.0442,-0.120664 -0.33024,-0.322229 -0.63126,-0.447918 -0.71945,-0.300636 -1.89411,-0.192785 -3.06899,0.281805 l -0.89931,0.363205 -0.46001,-0.580514 -0.46002,-0.580537 -0.26672,0.342496 c -0.44124,0.566493 -0.96608,1.756824 -1.07117,2.430809 l -0.0988,0.633629 0.59724,-0.100949 0.59724,-0.100948 v 1.540193 c 0,0.847116 0.0387,1.540198 0.0867,1.540198 0.0497,0 0.2717,-0.109287 0.49812,-0.243038 0.39484,-0.233264 0.44565,-0.227742 1.25892,0.136899 0.82366,0.369224 3.34307,1.200922 4.73613,1.563486 0.37884,0.09846 0.65716,0.229509 0.61911,0.291083 -0.11873,0.192233 -1.24617,0.244143 -2.83489,0.130493 -1.19018,-0.08521 -1.84325,-0.222385 -2.95794,-0.621689 -0.78676,-0.281861 -1.59783,-0.622076 -1.80227,-0.756042 -0.36668,-0.240112 -0.37055,-0.263527 -0.29213,-1.645239 0.0497,-0.855207 0.0331,-1.174813 -0.0331,-0.819787 -0.063,0.32002 -0.14414,1.114757 -0.18003,1.766051 l -0.0652,1.184196 1.90245,0.523242 c 1.04638,0.287769 2.25511,0.589516 2.68607,0.670534 1.04974,0.197313 5.14942,0.193006 5.34806,-0.0061 0.10713,-0.106968 0.22697,-0.03976 0.39982,0.223545 0.28495,0.434719 1.91697,1.674999 2.20419,1.674999 0.10658,0 0.24464,-0.08184 0.30704,-0.181851 z m 11.42993,-2.704856 c 0.52517,-1.012108 0.6904,-1.486179 0.68118,-1.952497 l -0.0111,-0.615863 -0.17782,0.800083 c -0.2115,0.951467 -0.78997,2.123226 -0.96,1.944749 -0.0663,-0.06953 -0.0552,-0.519155 0.0221,-0.999218 0.1364,-0.819279 0.0977,-4.361167 -0.0497,-4.508023 -0.0828,-0.083 -1.81691,0.262256 -1.94105,0.386398 -0.13198,0.132095 -0.50806,2.565671 -0.50861,3.292417 -2.7e-4,0.343987 0.10603,0.831157 0.23581,1.082573 0.3109,0.601427 1.66134,2.023431 1.85887,1.957583 0.085,-0.02816 0.46664,-0.653034 0.84807,-1.388196 z m -5.23447,-4.013596 c 1.68465,-1.560698 2.13257,-2.11873 1.70077,-2.11873 -0.0845,0 -1.32878,1.08937 -2.76465,2.420802 -2.12781,1.973112 -2.57915,2.458742 -2.44032,2.626013 0.14137,0.170365 0.296,0.08516 0.90992,-0.502312 0.40699,-0.389105 1.57419,-1.480745 2.59428,-2.425795 z m -2.54757,0.172905 c 2.83391,-2.727564 3.38404,-3.289175 3.38404,-3.454879 0,-0.430522 -0.67875,0.0555 -2.66795,1.91056 -2.20844,2.059526 -3.28376,3.157777 -3.29187,3.36217 -0.002,0.06003 0.12591,0.109121 0.2844,0.109121 0.17285,0 1.09226,-0.773067 2.29116,-1.926956 z m -8.23066,-0.823603 c 0.46387,-0.364696 1.08608,-1.536648 1.2053,-2.26943 0.0652,-0.398602 0.006,-0.868896 -0.1861,-1.485842 -0.36558,-1.174023 -0.88556,-2.047072 -1.60927,-2.700896 -1.29559,-1.170511 -2.58854,-1.45067 -3.85824,-0.836022 -0.76313,0.369445 -1.32232,0.97883 -1.72054,1.875068 -0.34018,0.765601 -0.25679,1.422081 0.29158,2.293888 0.36558,0.581277 0.39319,0.595408 0.89738,0.464153 1.63655,-0.425938 3.28883,-1.067811 3.71748,-1.444198 l 0.47823,-0.420029 0.21096,0.32753 c 0.61165,0.949451 0.72817,2.546922 0.27335,3.744487 -0.15241,0.400867 -0.22641,0.728894 -0.16512,0.728894 0.0613,0 0.2706,-0.124916 0.46499,-0.277603 z m 14.16039,-1.665153 c 0,-0.417655 0.0497,-0.513909 0.21814,-0.443057 0.39926,0.165725 0.61275,0.13353 0.77506,-0.117019 0.12811,-0.19781 0.0906,-0.323002 -0.18721,-0.618243 -0.3954,-0.420803 -0.3076,-0.478953 0.21095,-0.139384 0.39761,0.2606 0.65589,0.172021 0.65589,-0.225091 0,-0.168431 0.16567,-0.325928 0.44621,-0.423619 0.32361,-0.112656 0.41362,-0.211616 0.32747,-0.359615 -0.0652,-0.11238 -0.49149,-0.605133 -0.94747,-1.095224 -0.45559,-0.490109 -0.93736,-0.891064 -1.07006,-0.891064 -0.13254,0 -0.37386,0.168542 -0.53567,0.374526 -0.1618,0.205983 -0.45614,0.435989 -0.65396,0.511148 -0.1977,0.0751 -0.32913,0.217525 -0.29158,0.31643 0.24685,0.656966 0.26232,0.834415 0.0735,0.834415 -0.10934,0 -0.26673,-0.06765 -0.34901,-0.150207 -0.0828,-0.08267 -0.25071,-0.111773 -0.37276,-0.06472 -0.27391,0.1052 -0.61789,0.796835 -0.39595,0.796835 0.0828,0 0.10879,0.06826 0.0569,0.151755 -0.17672,0.285726 1.5636,2.237135 1.89499,2.125037 0.0801,-0.02706 0.14524,-0.289316 0.14524,-0.58284 z m -8.6222,-3.598111 c -0.0928,-1.248 0.10492,-3.661149 0.26728,-3.259951 0.0646,0.160038 0.22476,1.076466 0.35564,2.036553 0.22366,1.641202 0.37828,2.141361 0.59481,1.924913 0.0497,-0.05081 0.0111,-1.08259 -0.0828,-2.293 -0.0966,-1.210398 -0.14138,-2.234335 -0.10051,-2.275416 0.14689,-0.146618 0.54119,0.838591 0.83879,2.094388 0.16622,0.702051 0.33686,1.309188 0.37828,1.349181 0.14137,0.135463 -0.0707,-2.687123 -0.24464,-3.255235 -0.19052,-0.622655 -0.73856,-1.254262 -1.08779,-1.254262 -0.1237,0 -0.22476,0.105201 -0.22476,0.233761 0,0.166443 -0.0735,0.202946 -0.25458,0.126738 -0.53567,-0.225257 -0.91964,-0.242045 -1.15185,-0.05025 -0.4208,0.347466 -0.74961,1.325385 -0.8537,2.539677 -0.0768,0.894758 -0.0497,1.271962 0.10658,1.573073 0.20046,0.382699 0.21316,0.352767 0.37994,-0.886038 0.095,-0.705181 0.25458,-1.543981 0.35453,-1.864012 0.16622,-0.531029 0.18887,-0.365856 0.26066,1.891082 0.0442,1.360132 0.13806,2.60388 0.2115,2.763884 0.12646,0.276339 0.13806,0.272694 0.22863,-0.07278 0.0497,-0.200019 0.063,-0.795041 0.0221,-1.322281 z m 4.4758,0.524126 c 0.2347,-0.837486 0.12481,-2.48595 -0.20322,-3.060462 l -0.2474,-0.432675 0.0862,0.774276 c 0.0497,0.425829 0.011,1.292213 -0.0817,1.925245 -0.16512,1.129711 -0.11652,1.686982 0.13474,1.532014 0.0696,-0.04307 0.20985,-0.375299 0.31146,-0.738376 z m -6.383,-4.2504 c 0.0922,-0.576494 0.28882,-1.248011 0.43737,-1.492254 0.14855,-0.244253 0.55307,-0.581569 0.89893,-0.749608 l 0.62888,-0.305552 0.91467,0.461724 c 0.50309,0.253972 0.95128,0.42511 0.99601,0.380379 0.11707,-0.11724 -0.407,-0.660163 -0.8669,-0.898116 -0.21647,-0.111827 -0.60917,-0.20024 -0.87319,-0.19654 -0.26397,0.0037 -0.83829,0.15435 -1.27621,0.334765 -1.13954,0.469344 -1.34884,0.889804 -1.43057,2.873717 -0.0331,0.863784 -0.0166,1.688375 0.0497,1.832425 0.11708,0.270981 0.13199,0.206757 0.52297,-2.240935 z m -1.2084,-0.06224 c 0.1977,-1.283509 0.80428,-2.546878 1.38948,-2.893322 0.70912,-0.419864 0.82018,-0.558039 0.82018,-1.020618 v -0.430687 h -1.01827 c -0.71078,0 -1.02218,0.05467 -1.03124,0.18185 -0.006,0.10001 -0.005,0.476413 0.005,0.836442 0.011,0.360057 -0.0817,1.11283 -0.20267,1.672884 -0.19549,0.905035 -0.31698,2.836321 -0.16788,2.679033 0.0331,-0.03313 0.12425,-0.494857 0.20598,-1.025582 z m 6.10032,-0.671545 c -0.0839,-1.384181 -0.31643,-2.213852 -0.55417,-1.976359 -0.0944,0.09416 -0.0955,0.39148 -0.003,0.860133 0.0773,0.393909 0.18169,1.092591 0.23249,1.55263 0.0497,0.460066 0.16181,0.836442 0.24685,0.836442 0.10382,0 0.12978,-0.419864 0.0779,-1.272846 z m -6.59865,-1.85146 c 0.20156,-0.555973 0.34349,-1.034147 0.31532,-1.062604 -0.0497,-0.05025 -0.51137,1.118137 -0.73425,1.859424 -0.21592,0.717131 0.0591,0.194386 0.41915,-0.79682 z m 5.90824,-1.166998 v -0.654613 h -0.80002 -0.80008 v 0.501926 c 0,0.592277 0.26839,0.796504 1.05461,0.802882 l 0.5456,0.0044 z m -2.24533,0.001 c 0.11818,-0.630536 0.001,-0.969591 -0.29489,-0.855886 -0.15407,0.0592 -0.22366,0.284069 -0.22366,0.72489 0,0.462221 0.0585,0.639046 0.21151,0.639046 0.12646,0 0.25016,-0.204161 0.30704,-0.508056 z m 2.53631,-1.448506 c 0,-0.260433 -0.80649,-0.367733 -2.76388,-0.367733 -1.79029,0 -2.76394,0.106085 -2.76394,0.301079 0,0.118785 1.09172,0.180857 4.03678,0.229453 1.13219,0.01878 1.49104,-0.02043 1.49104,-0.162799 z m -3.58732,-1.099001 c 0.11984,-0.119891 0.28771,-2.869311 0.19107,-3.121699 -0.0795,-0.207475 -0.14965,-0.20129 -0.65821,0.05815 -0.78489,0.400425 -1.5542,1.34547 -1.75975,2.161667 -0.0944,0.374304 -0.24574,0.770251 -0.33686,0.879919 -0.13861,0.166996 0.0497,0.190963 1.16257,0.147392 0.73044,-0.02872 1.36103,-0.08505 1.40135,-0.125468 z m 3.49327,-0.762979 c -0.56168,-1.454431 -0.80996,-1.865431 -1.34767,-2.230806 -0.27778,-0.18892 -0.52463,-0.324604 -0.54782,-0.30141 -0.0221,0.02319 0.0221,0.26695 0.10216,0.541632 0.0795,0.274737 0.18611,1.039548 0.23746,1.699612 l 0.0928,1.20011 h 0.90716 0.90721 z m 0.62982,0.590963 c -0.0442,-0.116024 -0.0812,-0.08156 -0.0878,0.08786 -0.006,0.153355 0.0276,0.239283 0.0762,0.190907 0.0497,-0.0486 0.0552,-0.173788 0.011,-0.278823 z"
       id="path603" />
    <text
       xml:space="preserve"
       style="font-size:17.5334px;fill:#00ff66;stroke-width:1.46112"
       x="93.186516"
       y="45.299881"
       id="text448-3"><tspan
         sodipodi:role="line"
         id="tspan446-6"
         x="93.186516"
         y="45.299881"
         style="font-style:normal;font-variant:normal;font-weight:bold;font-stretch:normal;font-size:17.5334px;font-family:Roboto;-inkscape-font-specification:'Roboto Bold';fill:#000000;stroke-width:1.46112">Rvier.fr</tspan></text>
    <text
       xml:space="preserve"
       style="font-size:7.79264px;fill:#00ff66;stroke-width:1.46112"
       x="93.385483"
       y="56.310509"
       id="text448-3-7"><tspan
         sodipodi:role="line"
         id="tspan446-6-5"
         x="93.385483"
         y="56.310509"
         style="font-style:normal;font-variant:normal;font-weight:bold;font-stretch:normal;font-size:7.79264px;font-family:Roboto;-inkscape-font-specification:'Roboto Bold';fill:#000000;stroke-width:1.46112">Software crafting</tspan></text>
  </g>
</svg>
